<mxfile host="Electron" modified="2023-04-11T13:24:41.887Z" agent="Mozilla/5.0 (Windows NT 10.0; Win64; x64) AppleWebKit/537.36 (KHTML, like Gecko) draw.io/21.1.2 Chrome/106.0.5249.199 Electron/21.4.3 Safari/537.36" etag="VKLWnKwsRlCIfG124n1d" version="21.1.2" type="device">
  <diagram name="第 1 页" id="EI4v4tzwtCIPgh1UmeMK">
    <mxGraphModel dx="4007" dy="2779" grid="1" gridSize="10" guides="1" tooltips="1" connect="1" arrows="1" fold="1" page="1" pageScale="1" pageWidth="827" pageHeight="1169" math="0" shadow="0">
      <root>
        <mxCell id="0" />
        <mxCell id="1" parent="0" />
        <mxCell id="90OX03aLP0Y9f1BhYOjZ-74" value="" style="rounded=0;whiteSpace=wrap;html=1;fillColor=#f5f5f5;fontColor=#333333;strokeColor=#666666;" parent="1" vertex="1">
          <mxGeometry x="-400" y="380" width="120" height="100" as="geometry" />
        </mxCell>
        <mxCell id="90OX03aLP0Y9f1BhYOjZ-75" value="" style="rounded=0;whiteSpace=wrap;html=1;fillColor=#ffe6cc;strokeColor=#d79b00;" parent="1" vertex="1">
          <mxGeometry x="-400" y="480" width="120" height="60" as="geometry" />
        </mxCell>
        <mxCell id="90OX03aLP0Y9f1BhYOjZ-76" value="" style="rounded=0;whiteSpace=wrap;html=1;fillColor=#f5f5f5;fontColor=#333333;strokeColor=#666666;" parent="1" vertex="1">
          <mxGeometry x="-400" y="540" width="120" height="100" as="geometry" />
        </mxCell>
        <mxCell id="90OX03aLP0Y9f1BhYOjZ-77" value="" style="rounded=0;whiteSpace=wrap;html=1;fillColor=#f5f5f5;fontColor=#333333;strokeColor=#666666;" parent="1" vertex="1">
          <mxGeometry x="-400" y="-100" width="120" height="480" as="geometry" />
        </mxCell>
        <mxCell id="90OX03aLP0Y9f1BhYOjZ-78" value="" style="rounded=0;whiteSpace=wrap;html=1;fillColor=#f5f5f5;fontColor=#333333;strokeColor=#666666;" parent="1" vertex="1">
          <mxGeometry x="-400" y="-450" width="120" height="350" as="geometry" />
        </mxCell>
        <mxCell id="90OX03aLP0Y9f1BhYOjZ-79" value="" style="endArrow=classic;html=1;rounded=0;entryX=0;entryY=1;entryDx=0;entryDy=0;" parent="1" target="90OX03aLP0Y9f1BhYOjZ-75" edge="1">
          <mxGeometry width="50" height="50" relative="1" as="geometry">
            <mxPoint x="-560" y="540" as="sourcePoint" />
            <mxPoint x="-430" y="539.26" as="targetPoint" />
          </mxGeometry>
        </mxCell>
        <mxCell id="90OX03aLP0Y9f1BhYOjZ-80" value="&lt;font style=&quot;font-size: 24px;&quot;&gt;0x7c00(31k)&lt;/font&gt;" style="text;strokeColor=none;align=center;fillColor=none;html=1;verticalAlign=middle;whiteSpace=wrap;rounded=0;" parent="1" vertex="1">
          <mxGeometry x="-510" y="510" width="60" height="30" as="geometry" />
        </mxCell>
        <mxCell id="90OX03aLP0Y9f1BhYOjZ-81" value="" style="endArrow=classic;html=1;rounded=0;" parent="1" edge="1">
          <mxGeometry width="50" height="50" relative="1" as="geometry">
            <mxPoint x="-560" y="380" as="sourcePoint" />
            <mxPoint x="-400" y="380" as="targetPoint" />
          </mxGeometry>
        </mxCell>
        <mxCell id="90OX03aLP0Y9f1BhYOjZ-82" value="&lt;font style=&quot;font-size: 24px;&quot;&gt;0x10000(64k)&lt;/font&gt;" style="text;strokeColor=none;align=center;fillColor=none;html=1;verticalAlign=middle;whiteSpace=wrap;rounded=0;" parent="1" vertex="1">
          <mxGeometry x="-510" y="340" width="60" height="30" as="geometry" />
        </mxCell>
        <mxCell id="90OX03aLP0Y9f1BhYOjZ-84" value="&lt;font style=&quot;font-size: 24px;&quot;&gt;0x90000(576k)&lt;/font&gt;" style="text;strokeColor=none;align=center;fillColor=none;html=1;verticalAlign=middle;whiteSpace=wrap;rounded=0;" parent="1" vertex="1">
          <mxGeometry x="-520" y="-140" width="60" height="30" as="geometry" />
        </mxCell>
        <mxCell id="90OX03aLP0Y9f1BhYOjZ-85" value="" style="endArrow=classic;html=1;rounded=0;" parent="1" edge="1">
          <mxGeometry width="50" height="50" relative="1" as="geometry">
            <mxPoint x="-560" y="-100" as="sourcePoint" />
            <mxPoint x="-400.0000000000002" y="-100" as="targetPoint" />
          </mxGeometry>
        </mxCell>
        <mxCell id="90OX03aLP0Y9f1BhYOjZ-88" value="" style="rounded=0;whiteSpace=wrap;html=1;fillColor=#f5f5f5;fontColor=#333333;strokeColor=#666666;" parent="1" vertex="1">
          <mxGeometry x="-200" y="380" width="120" height="260" as="geometry" />
        </mxCell>
        <mxCell id="90OX03aLP0Y9f1BhYOjZ-89" value="" style="rounded=0;whiteSpace=wrap;html=1;fillColor=#f5f5f5;fontColor=#333333;strokeColor=#666666;" parent="1" vertex="1">
          <mxGeometry x="-200" y="-100" width="120" height="480" as="geometry" />
        </mxCell>
        <mxCell id="90OX03aLP0Y9f1BhYOjZ-90" value="" style="rounded=0;whiteSpace=wrap;html=1;fillColor=#f5f5f5;fontColor=#333333;strokeColor=#666666;" parent="1" vertex="1">
          <mxGeometry x="-200" y="-450" width="120" height="290" as="geometry" />
        </mxCell>
        <mxCell id="90OX03aLP0Y9f1BhYOjZ-97" value="" style="rounded=0;whiteSpace=wrap;html=1;fillColor=#ffe6cc;strokeColor=#d79b00;" parent="1" vertex="1">
          <mxGeometry x="-200" y="-160" width="120" height="60" as="geometry" />
        </mxCell>
        <mxCell id="90OX03aLP0Y9f1BhYOjZ-101" value="" style="rounded=0;whiteSpace=wrap;html=1;fillColor=#f5f5f5;fontColor=#333333;strokeColor=#666666;" parent="1" vertex="1">
          <mxGeometry y="380" width="120" height="260" as="geometry" />
        </mxCell>
        <mxCell id="90OX03aLP0Y9f1BhYOjZ-102" value="" style="rounded=0;whiteSpace=wrap;html=1;fillColor=#f5f5f5;fontColor=#333333;strokeColor=#666666;" parent="1" vertex="1">
          <mxGeometry y="-100" width="120" height="480" as="geometry" />
        </mxCell>
        <mxCell id="90OX03aLP0Y9f1BhYOjZ-103" value="" style="rounded=0;whiteSpace=wrap;html=1;fillColor=#f5f5f5;fontColor=#333333;strokeColor=#666666;" parent="1" vertex="1">
          <mxGeometry y="-450" width="120" height="170" as="geometry" />
        </mxCell>
        <mxCell id="90OX03aLP0Y9f1BhYOjZ-104" value="" style="rounded=0;whiteSpace=wrap;html=1;fillColor=#ffe6cc;strokeColor=#d79b00;" parent="1" vertex="1">
          <mxGeometry y="-160" width="120" height="60" as="geometry" />
        </mxCell>
        <mxCell id="90OX03aLP0Y9f1BhYOjZ-105" value="" style="rounded=0;whiteSpace=wrap;html=1;fillColor=#fff2cc;strokeColor=#d6b656;" parent="1" vertex="1">
          <mxGeometry y="-280" width="120" height="120" as="geometry" />
        </mxCell>
        <mxCell id="90OX03aLP0Y9f1BhYOjZ-108" value="" style="rounded=0;whiteSpace=wrap;html=1;fillColor=#f5f5f5;fontColor=#333333;strokeColor=#666666;" parent="1" vertex="1">
          <mxGeometry x="210" y="380" width="120" height="260" as="geometry" />
        </mxCell>
        <mxCell id="90OX03aLP0Y9f1BhYOjZ-109" value="" style="rounded=0;whiteSpace=wrap;html=1;fillColor=#f5f5f5;fontColor=#333333;strokeColor=#666666;" parent="1" vertex="1">
          <mxGeometry x="210" y="-100" width="120" height="90" as="geometry" />
        </mxCell>
        <mxCell id="90OX03aLP0Y9f1BhYOjZ-110" value="" style="rounded=0;whiteSpace=wrap;html=1;fillColor=#f5f5f5;fontColor=#333333;strokeColor=#666666;" parent="1" vertex="1">
          <mxGeometry x="210" y="-450" width="120" height="170" as="geometry" />
        </mxCell>
        <mxCell id="90OX03aLP0Y9f1BhYOjZ-111" value="" style="rounded=0;whiteSpace=wrap;html=1;fillColor=#ffe6cc;strokeColor=#d79b00;" parent="1" vertex="1">
          <mxGeometry x="210" y="-160" width="120" height="60" as="geometry" />
        </mxCell>
        <mxCell id="90OX03aLP0Y9f1BhYOjZ-112" value="" style="rounded=0;whiteSpace=wrap;html=1;fillColor=#fff2cc;strokeColor=#d6b656;" parent="1" vertex="1">
          <mxGeometry x="210" y="-280" width="120" height="120" as="geometry" />
        </mxCell>
        <mxCell id="90OX03aLP0Y9f1BhYOjZ-113" value="" style="rounded=0;whiteSpace=wrap;html=1;fillColor=#f8cecc;strokeColor=#b85450;" parent="1" vertex="1">
          <mxGeometry x="210" y="-10" width="120" height="330" as="geometry" />
        </mxCell>
        <mxCell id="90OX03aLP0Y9f1BhYOjZ-114" value="" style="rounded=0;whiteSpace=wrap;html=1;fillColor=#e1d5e7;strokeColor=#9673a6;" parent="1" vertex="1">
          <mxGeometry x="210" y="320" width="120" height="60" as="geometry" />
        </mxCell>
        <mxCell id="90OX03aLP0Y9f1BhYOjZ-117" value="" style="rounded=0;whiteSpace=wrap;html=1;fillColor=#f5f5f5;fontColor=#333333;strokeColor=#666666;" parent="1" vertex="1">
          <mxGeometry x="420" y="380" width="120" height="260" as="geometry" />
        </mxCell>
        <mxCell id="90OX03aLP0Y9f1BhYOjZ-118" value="" style="rounded=0;whiteSpace=wrap;html=1;fillColor=#f5f5f5;fontColor=#333333;strokeColor=#666666;" parent="1" vertex="1">
          <mxGeometry x="420" y="-100" width="120" height="90" as="geometry" />
        </mxCell>
        <mxCell id="90OX03aLP0Y9f1BhYOjZ-119" value="" style="rounded=0;whiteSpace=wrap;html=1;fillColor=#f5f5f5;fontColor=#333333;strokeColor=#666666;" parent="1" vertex="1">
          <mxGeometry x="420" y="-450" width="120" height="170" as="geometry" />
        </mxCell>
        <mxCell id="90OX03aLP0Y9f1BhYOjZ-120" value="" style="rounded=0;whiteSpace=wrap;html=1;fillColor=#f5f5f5;strokeColor=#666666;fontColor=#333333;" parent="1" vertex="1">
          <mxGeometry x="420" y="-160" width="120" height="60" as="geometry" />
        </mxCell>
        <mxCell id="90OX03aLP0Y9f1BhYOjZ-121" value="" style="rounded=0;whiteSpace=wrap;html=1;fillColor=#fff2cc;strokeColor=#d6b656;" parent="1" vertex="1">
          <mxGeometry x="420" y="-280" width="120" height="120" as="geometry" />
        </mxCell>
        <mxCell id="90OX03aLP0Y9f1BhYOjZ-122" value="" style="rounded=0;whiteSpace=wrap;html=1;fillColor=#f8cecc;strokeColor=#b85450;" parent="1" vertex="1">
          <mxGeometry x="420" y="-10" width="120" height="330" as="geometry" />
        </mxCell>
        <mxCell id="90OX03aLP0Y9f1BhYOjZ-123" value="" style="rounded=0;whiteSpace=wrap;html=1;fillColor=#e1d5e7;strokeColor=#9673a6;" parent="1" vertex="1">
          <mxGeometry x="420" y="320" width="120" height="60" as="geometry" />
        </mxCell>
        <mxCell id="90OX03aLP0Y9f1BhYOjZ-125" value="" style="rounded=0;whiteSpace=wrap;html=1;fillColor=#f5f5f5;fontColor=#333333;strokeColor=#666666;" parent="1" vertex="1">
          <mxGeometry x="630" y="-100" width="120" height="350" as="geometry" />
        </mxCell>
        <mxCell id="90OX03aLP0Y9f1BhYOjZ-126" value="" style="rounded=0;whiteSpace=wrap;html=1;fillColor=#f5f5f5;fontColor=#333333;strokeColor=#666666;" parent="1" vertex="1">
          <mxGeometry x="630" y="-450" width="120" height="170" as="geometry" />
        </mxCell>
        <mxCell id="90OX03aLP0Y9f1BhYOjZ-127" value="" style="rounded=0;whiteSpace=wrap;html=1;fillColor=#f5f5f5;strokeColor=#666666;fontColor=#333333;" parent="1" vertex="1">
          <mxGeometry x="630" y="-160" width="120" height="60" as="geometry" />
        </mxCell>
        <mxCell id="90OX03aLP0Y9f1BhYOjZ-128" value="" style="rounded=0;whiteSpace=wrap;html=1;fillColor=#fff2cc;strokeColor=#d6b656;" parent="1" vertex="1">
          <mxGeometry x="630" y="-280" width="120" height="120" as="geometry" />
        </mxCell>
        <mxCell id="90OX03aLP0Y9f1BhYOjZ-129" value="" style="rounded=0;whiteSpace=wrap;html=1;fillColor=#f8cecc;strokeColor=#b85450;" parent="1" vertex="1">
          <mxGeometry x="630" y="250" width="120" height="330" as="geometry" />
        </mxCell>
        <mxCell id="90OX03aLP0Y9f1BhYOjZ-130" value="" style="rounded=0;whiteSpace=wrap;html=1;fillColor=#e1d5e7;strokeColor=#9673a6;" parent="1" vertex="1">
          <mxGeometry x="630" y="580" width="120" height="60" as="geometry" />
        </mxCell>
        <mxCell id="90OX03aLP0Y9f1BhYOjZ-131" value="&lt;font style=&quot;font-size: 24px;&quot;&gt;BIOS加载磁盘第一个分区&lt;/font&gt;" style="text;strokeColor=none;align=center;fillColor=none;html=1;verticalAlign=middle;whiteSpace=wrap;rounded=0;fontSize=18;" parent="1" vertex="1">
          <mxGeometry x="-410" y="660" width="140" height="90" as="geometry" />
        </mxCell>
        <mxCell id="90OX03aLP0Y9f1BhYOjZ-133" value="&lt;font style=&quot;font-size: 24px;&quot;&gt;移动bootsect.s到新位置&lt;/font&gt;" style="text;strokeColor=none;align=center;fillColor=none;html=1;verticalAlign=middle;whiteSpace=wrap;rounded=0;fontSize=18;" parent="1" vertex="1">
          <mxGeometry x="-210" y="690" width="130" height="30" as="geometry" />
        </mxCell>
        <mxCell id="90OX03aLP0Y9f1BhYOjZ-134" value="&lt;span style=&quot;color: rgb(0, 0, 0); font-family: Helvetica; font-style: normal; font-variant-ligatures: normal; font-variant-caps: normal; font-weight: 400; letter-spacing: normal; orphans: 2; text-align: center; text-indent: 0px; text-transform: none; widows: 2; word-spacing: 0px; -webkit-text-stroke-width: 0px; background-color: rgb(251, 251, 251); text-decoration-thickness: initial; text-decoration-style: initial; text-decoration-color: initial; float: none; display: inline !important;&quot;&gt;&lt;font style=&quot;font-size: 24px;&quot;&gt;加载setup模块&lt;/font&gt;&lt;/span&gt;" style="text;whiteSpace=wrap;html=1;fontSize=18;" parent="1" vertex="1">
          <mxGeometry x="-10" y="670" width="220" height="50" as="geometry" />
        </mxCell>
        <mxCell id="90OX03aLP0Y9f1BhYOjZ-135" value="&lt;span style=&quot;color: rgb(0, 0, 0); font-family: Helvetica; font-style: normal; font-variant-ligatures: normal; font-variant-caps: normal; font-weight: 400; letter-spacing: normal; orphans: 2; text-indent: 0px; text-transform: none; widows: 2; word-spacing: 0px; -webkit-text-stroke-width: 0px; background-color: rgb(251, 251, 251); text-decoration-thickness: initial; text-decoration-style: initial; text-decoration-color: initial; float: none; display: inline !important;&quot;&gt;&lt;font style=&quot;font-size: 24px;&quot;&gt;加载system&lt;br&gt;模块&lt;/font&gt;&lt;/span&gt;" style="text;whiteSpace=wrap;html=1;fontSize=18;align=center;" parent="1" vertex="1">
          <mxGeometry x="220" y="670" width="130" height="50" as="geometry" />
        </mxCell>
        <mxCell id="90OX03aLP0Y9f1BhYOjZ-138" value="&lt;span style=&quot;color: rgb(0, 0, 0); font-family: Helvetica; font-style: normal; font-variant-ligatures: normal; font-variant-caps: normal; font-weight: 400; letter-spacing: normal; orphans: 2; text-indent: 0px; text-transform: none; widows: 2; word-spacing: 0px; -webkit-text-stroke-width: 0px; background-color: rgb(251, 251, 251); text-decoration-thickness: initial; text-decoration-style: initial; text-decoration-color: initial; float: none; display: inline !important;&quot;&gt;&lt;font style=&quot;font-size: 24px;&quot;&gt;执行setup模块&lt;br&gt;中的代码&lt;/font&gt;&lt;/span&gt;" style="text;whiteSpace=wrap;html=1;fontSize=18;align=center;" parent="1" vertex="1">
          <mxGeometry x="380" y="670" width="220" height="50" as="geometry" />
        </mxCell>
        <mxCell id="90OX03aLP0Y9f1BhYOjZ-139" value="&lt;span style=&quot;color: rgb(0, 0, 0); font-family: Helvetica; font-style: normal; font-variant-ligatures: normal; font-variant-caps: normal; font-weight: 400; letter-spacing: normal; orphans: 2; text-indent: 0px; text-transform: none; widows: 2; word-spacing: 0px; -webkit-text-stroke-width: 0px; background-color: rgb(251, 251, 251); text-decoration-thickness: initial; text-decoration-style: initial; text-decoration-color: initial; float: none; display: inline !important;&quot;&gt;&lt;font style=&quot;font-size: 24px;&quot;&gt;重新挪动system&lt;br&gt;到新位置&lt;/font&gt;&lt;/span&gt;" style="text;whiteSpace=wrap;html=1;fontSize=18;align=center;" parent="1" vertex="1">
          <mxGeometry x="590" y="670" width="220" height="50" as="geometry" />
        </mxCell>
        <mxCell id="90OX03aLP0Y9f1BhYOjZ-140" value="" style="endArrow=classic;html=1;rounded=0;fontSize=18;" parent="1" edge="1">
          <mxGeometry width="50" height="50" relative="1" as="geometry">
            <mxPoint x="-330" y="530" as="sourcePoint" />
            <mxPoint x="-140" y="-110" as="targetPoint" />
          </mxGeometry>
        </mxCell>
        <mxCell id="90OX03aLP0Y9f1BhYOjZ-141" value="" style="endArrow=classic;html=1;rounded=0;fontSize=18;entryX=0.5;entryY=0.5;entryDx=0;entryDy=0;entryPerimeter=0;" parent="1" target="90OX03aLP0Y9f1BhYOjZ-104" edge="1">
          <mxGeometry width="50" height="50" relative="1" as="geometry">
            <mxPoint x="-140" y="-110" as="sourcePoint" />
            <mxPoint y="-150" as="targetPoint" />
          </mxGeometry>
        </mxCell>
        <mxCell id="90OX03aLP0Y9f1BhYOjZ-142" value="" style="endArrow=classic;html=1;rounded=0;fontSize=18;entryX=0.5;entryY=1;entryDx=0;entryDy=0;" parent="1" target="90OX03aLP0Y9f1BhYOjZ-112" edge="1">
          <mxGeometry width="50" height="50" relative="1" as="geometry">
            <mxPoint x="60" y="-130" as="sourcePoint" />
            <mxPoint x="110" y="-170" as="targetPoint" />
          </mxGeometry>
        </mxCell>
        <mxCell id="90OX03aLP0Y9f1BhYOjZ-143" value="" style="endArrow=classic;html=1;rounded=0;fontSize=18;entryX=0.5;entryY=0.583;entryDx=0;entryDy=0;entryPerimeter=0;" parent="1" target="90OX03aLP0Y9f1BhYOjZ-121" edge="1">
          <mxGeometry width="50" height="50" relative="1" as="geometry">
            <mxPoint x="270" y="-160" as="sourcePoint" />
            <mxPoint x="320" y="-210" as="targetPoint" />
          </mxGeometry>
        </mxCell>
        <mxCell id="90OX03aLP0Y9f1BhYOjZ-144" value="" style="endArrow=classic;html=1;rounded=0;fontSize=18;exitX=0.5;exitY=0.583;exitDx=0;exitDy=0;exitPerimeter=0;entryX=0.5;entryY=0;entryDx=0;entryDy=0;" parent="1" source="90OX03aLP0Y9f1BhYOjZ-121" target="90OX03aLP0Y9f1BhYOjZ-128" edge="1">
          <mxGeometry width="50" height="50" relative="1" as="geometry">
            <mxPoint x="480" y="-280" as="sourcePoint" />
            <mxPoint x="580" y="-230" as="targetPoint" />
          </mxGeometry>
        </mxCell>
        <mxCell id="90OX03aLP0Y9f1BhYOjZ-145" value="" style="rounded=0;whiteSpace=wrap;html=1;fillColor=#f5f5f5;fontColor=#333333;strokeColor=#666666;" parent="1" vertex="1">
          <mxGeometry x="850" y="-100" width="120" height="350" as="geometry" />
        </mxCell>
        <mxCell id="90OX03aLP0Y9f1BhYOjZ-146" value="" style="rounded=0;whiteSpace=wrap;html=1;fillColor=#f5f5f5;fontColor=#333333;strokeColor=#666666;" parent="1" vertex="1">
          <mxGeometry x="850" y="-450" width="120" height="170" as="geometry" />
        </mxCell>
        <mxCell id="90OX03aLP0Y9f1BhYOjZ-147" value="" style="rounded=0;whiteSpace=wrap;html=1;fillColor=#f5f5f5;strokeColor=#666666;fontColor=#333333;" parent="1" vertex="1">
          <mxGeometry x="850" y="-160" width="120" height="60" as="geometry" />
        </mxCell>
        <mxCell id="90OX03aLP0Y9f1BhYOjZ-148" value="" style="rounded=0;whiteSpace=wrap;html=1;fillColor=#fff2cc;strokeColor=#d6b656;" parent="1" vertex="1">
          <mxGeometry x="850" y="-280" width="120" height="120" as="geometry" />
        </mxCell>
        <mxCell id="90OX03aLP0Y9f1BhYOjZ-149" value="" style="rounded=0;whiteSpace=wrap;html=1;fillColor=#f8cecc;strokeColor=#b85450;" parent="1" vertex="1">
          <mxGeometry x="850" y="250" width="120" height="330" as="geometry" />
        </mxCell>
        <mxCell id="90OX03aLP0Y9f1BhYOjZ-150" value="" style="rounded=0;whiteSpace=wrap;html=1;fillColor=#e1d5e7;strokeColor=#9673a6;" parent="1" vertex="1">
          <mxGeometry x="850" y="580" width="120" height="60" as="geometry" />
        </mxCell>
        <mxCell id="90OX03aLP0Y9f1BhYOjZ-151" value="" style="endArrow=classic;html=1;rounded=0;fontSize=18;exitX=0.5;exitY=0;exitDx=0;exitDy=0;entryX=0.5;entryY=1;entryDx=0;entryDy=0;" parent="1" source="90OX03aLP0Y9f1BhYOjZ-128" target="90OX03aLP0Y9f1BhYOjZ-150" edge="1">
          <mxGeometry width="50" height="50" relative="1" as="geometry">
            <mxPoint x="670" y="-210.04000000000042" as="sourcePoint" />
            <mxPoint x="880" y="-280" as="targetPoint" />
          </mxGeometry>
        </mxCell>
        <mxCell id="90OX03aLP0Y9f1BhYOjZ-153" value="&lt;span style=&quot;font-size: 24px;&quot;&gt;执行system模块&lt;/span&gt;" style="text;whiteSpace=wrap;html=1;fontSize=18;align=center;" parent="1" vertex="1">
          <mxGeometry x="820" y="670" width="220" height="50" as="geometry" />
        </mxCell>
        <mxCell id="90OX03aLP0Y9f1BhYOjZ-154" value="" style="rounded=0;whiteSpace=wrap;html=1;fillColor=#f5f5f5;fontColor=#333333;strokeColor=#666666;" parent="1" vertex="1">
          <mxGeometry x="-860" y="-430" width="120" height="500" as="geometry" />
        </mxCell>
        <mxCell id="90OX03aLP0Y9f1BhYOjZ-155" value="" style="rounded=0;whiteSpace=wrap;html=1;fillColor=#ffe6cc;strokeColor=#d79b00;" parent="1" vertex="1">
          <mxGeometry x="-860" y="580" width="120" height="60" as="geometry" />
        </mxCell>
        <mxCell id="90OX03aLP0Y9f1BhYOjZ-156" value="" style="rounded=0;whiteSpace=wrap;html=1;fillColor=#fff2cc;strokeColor=#d6b656;" parent="1" vertex="1">
          <mxGeometry x="-860" y="460" width="120" height="120" as="geometry" />
        </mxCell>
        <mxCell id="90OX03aLP0Y9f1BhYOjZ-157" value="" style="rounded=0;whiteSpace=wrap;html=1;fillColor=#f8cecc;strokeColor=#b85450;" parent="1" vertex="1">
          <mxGeometry x="-860" y="70" width="120" height="330" as="geometry" />
        </mxCell>
        <mxCell id="90OX03aLP0Y9f1BhYOjZ-158" value="" style="rounded=0;whiteSpace=wrap;html=1;fillColor=#e1d5e7;strokeColor=#9673a6;" parent="1" vertex="1">
          <mxGeometry x="-860" y="400" width="120" height="60" as="geometry" />
        </mxCell>
        <mxCell id="90OX03aLP0Y9f1BhYOjZ-160" value="" style="shape=curlyBracket;whiteSpace=wrap;html=1;rounded=1;labelPosition=left;verticalLabelPosition=middle;align=right;verticalAlign=middle;fontSize=24;rotation=90;" parent="1" vertex="1">
          <mxGeometry x="278" y="-1212" width="20" height="1376" as="geometry" />
        </mxCell>
        <mxCell id="90OX03aLP0Y9f1BhYOjZ-161" value="&lt;font style=&quot;font-size: 36px;&quot;&gt;内存分布&lt;/font&gt;" style="text;strokeColor=none;align=center;fillColor=none;html=1;verticalAlign=middle;whiteSpace=wrap;rounded=0;fontSize=24;" parent="1" vertex="1">
          <mxGeometry x="238" y="-614" width="100" height="30" as="geometry" />
        </mxCell>
        <mxCell id="90OX03aLP0Y9f1BhYOjZ-162" value="&lt;font style=&quot;font-size: 36px;&quot;&gt;磁盘分布&lt;/font&gt;" style="text;strokeColor=none;align=center;fillColor=none;html=1;verticalAlign=middle;whiteSpace=wrap;rounded=0;fontSize=24;" parent="1" vertex="1">
          <mxGeometry x="-850" y="-599" width="100" height="30" as="geometry" />
        </mxCell>
        <mxCell id="90OX03aLP0Y9f1BhYOjZ-163" value="" style="shape=curlyBracket;whiteSpace=wrap;html=1;rounded=1;labelPosition=left;verticalLabelPosition=middle;align=right;verticalAlign=middle;fontSize=36;rotation=90;" parent="1" vertex="1">
          <mxGeometry x="-810" y="-584" width="20" height="120" as="geometry" />
        </mxCell>
        <mxCell id="90OX03aLP0Y9f1BhYOjZ-174" value="" style="rounded=0;whiteSpace=wrap;html=1;fillColor=#ffe6cc;strokeColor=#d79b00;" parent="1" vertex="1">
          <mxGeometry x="1200" y="560" width="120" height="60" as="geometry" />
        </mxCell>
        <mxCell id="90OX03aLP0Y9f1BhYOjZ-175" value="" style="rounded=0;whiteSpace=wrap;html=1;fillColor=#fff2cc;strokeColor=#d6b656;" parent="1" vertex="1">
          <mxGeometry x="1200" y="390" width="120" height="120" as="geometry" />
        </mxCell>
        <mxCell id="90OX03aLP0Y9f1BhYOjZ-176" value="" style="rounded=0;whiteSpace=wrap;html=1;fillColor=#e1d5e7;strokeColor=#9673a6;" parent="1" vertex="1">
          <mxGeometry x="1200" y="270" width="120" height="60" as="geometry" />
        </mxCell>
        <mxCell id="90OX03aLP0Y9f1BhYOjZ-177" value="" style="rounded=0;whiteSpace=wrap;html=1;fillColor=#f8cecc;strokeColor=#b85450;" parent="1" vertex="1">
          <mxGeometry x="1200" y="-110" width="120" height="330" as="geometry" />
        </mxCell>
        <mxCell id="90OX03aLP0Y9f1BhYOjZ-178" value="bootsect.s" style="text;strokeColor=none;align=center;fillColor=none;html=1;verticalAlign=middle;whiteSpace=wrap;rounded=0;fontSize=36;" parent="1" vertex="1">
          <mxGeometry x="1420" y="575" width="60" height="30" as="geometry" />
        </mxCell>
        <mxCell id="90OX03aLP0Y9f1BhYOjZ-179" value="setup.s" style="text;strokeColor=none;align=center;fillColor=none;html=1;verticalAlign=middle;whiteSpace=wrap;rounded=0;fontSize=36;" parent="1" vertex="1">
          <mxGeometry x="1394" y="435" width="60" height="30" as="geometry" />
        </mxCell>
        <mxCell id="90OX03aLP0Y9f1BhYOjZ-180" value="head.s" style="text;strokeColor=none;align=center;fillColor=none;html=1;verticalAlign=middle;whiteSpace=wrap;rounded=0;fontSize=36;" parent="1" vertex="1">
          <mxGeometry x="1390" y="285" width="60" height="30" as="geometry" />
        </mxCell>
        <mxCell id="90OX03aLP0Y9f1BhYOjZ-181" value="system模块" style="text;strokeColor=none;align=center;fillColor=none;html=1;verticalAlign=middle;whiteSpace=wrap;rounded=0;fontSize=36;" parent="1" vertex="1">
          <mxGeometry x="1400" y="70" width="60" height="30" as="geometry" />
        </mxCell>
        <mxCell id="CdIVfQIHoynyApezfRmy-1" value="" style="shape=image;verticalLabelPosition=bottom;labelBackgroundColor=default;verticalAlign=top;aspect=fixed;imageAspect=0;image=data:image/png,iVBORw0KGgoAAAANSUhEUgAAAtEAAAMKCAYAAABDRxhfAAAgAElEQVR4nOzdX2hcdf7/8VeXbAjfFKWVEtOu0qiB7E1Z2EFchB8kLNusf9obb7amgtAGpFtctO2dDal3bV2UriwkgmBTvfGmXfWbfpEpCLIis7D0ZgNxO0Ftx1BsqTRLyA7kdzEzmZPJOWfO//M55zwfEJg0MyfTycznvOY978/ns219fX1dAAAAADz7Wdp3AAAAAMgaQjQAAADgEyEaAAAA8IkQDQAAAPhEiAYAAAB8IkQDAAAAPhGiAQAAAJ8I0QAAAIBPhGgAAADAJ0I0AAAA4BMhGgAAAPCJEA0AAAD4RIgGAAAAfCJEAwAAAD4RogEAAACfCNEAAACAT4RoAAAAwCdCNAAAAOATIRoAAADwiRANAAAA+ESIBgAAAHwiRAMAAAA+EaIBAAAAnwjRAAAAgE+EaAAAAMAnQjQAAADgEyEaAAAA8IkQDQAAAPhEiAYAAAB8IkQDAAAAPvWkfQcAwI9t27alfRcCWV9fT/suAAAiRIgGEKusht6oRfU4EMYBwAyEaACeEYjTF+RvQPAGgOgRogEQjnPOz9+XwA0A3hCigQIgJMMrt+cKARsA2gjRQE4UISh/euuRyI/57O7vUvs9WdPtOUbIBlAkhGggI7IakuMIpFkU5eNgaiAnZAMoEkI0YBDTgzKB2AxB/g4mBG+n5zfhGkAWEaKBlJgUmAnH+ef1b5xG2CZcA8giQjQQM1PCMkEZXrg9T5IO2IRrACYjRAMRSjMwE5IRt27PsaRCtt3rjGANIGmEaCCANMJyXkJyrVrfuDw4xBCUJ2mGbKrWAJLGGQzoIunAnI2wvKoLu29rXpLUq8kvB3RwyO36dV0+9aNm5ta2/GRkYof+8Mp2lVxvDzfWNyZSjwYNfSydnttJh2uCNYAobFtnNAE2SSo0ZyMs26vNLuvIVCsQdwnR1ft6/em7WnA9opcgHp/OEJeFv02tfF8fv31X8xW7n/ZqfPohHT9qXyfZ/PfzbmR6UG85HDMOSbWHcBoEEASVaBReEqE5C6HMu1V97DmA1XX51XaAHpnYpRNn+zTY/Fll9kdNTa1JWtPMq/f15JXtzZ/BVfW+zk+4vTFZ0/xUTfN/26H3MvyY2r1u4gjWVKsBBEGIRqEk2ZqRr+DcVjnVauPwoPyTZpqV0q1VzB6Vjg7oPTWropW7+ri8XcfHIr7DATy7+7sM/P16NTLxoE680mdp36irVv5J5ydWGgG7clfnZ/u2Vo8f79f4xM89/ZalhRUtVBq/7//9Nv1TRlItIZ1jBaEaQKf0R0QgRnGGZuvJ3ISNLBJRva+P5hoXR0q9Wqi4V6Qr8yvNS/36g0MbwODRBzU+1Qjm8/OrOj7WF939za0+nfhyu03vc48Gx3bqrTnp2YnGY78w9ZMqR3eqZLnW4JjHNyvV+3r96cZxRqYfSq3dxovW6zGu1yKhGkAnQjRyJa7QHHSHOPOrmX5YWjMmdunE8D0dse3HtVHq1R7HH/bo0ZIkr8eCNNTj3qIx9oAmSyvNTwH+q5tVBZq4Wflrq2XE+U1QFsTxhpdQDSC7oyKgeEJzkOD76a1HbE/OeQrStdkfm6GsX9Nn+6TZe11vs2e4V9KaVFnTTckh+NX1bavlY5ghyRjWTx2mH9hUyTaVl4AcV581oRooHs5YyJyog3NeQm6sqvd1vjmZsBWoah5uNvjbfo1MrWlBK/po9gGVbKqZtdl7G0vlmdBzmz8/1x6q0L6uE3WoJlAD+ZTdkRGFkZXQnN9qtKWNo7RDJ/wEqqHtOjG9oiNTa1qYqul17dKJo3arc5jfc5sp1VV90WqPmfgf/1XknFahvYo6VFOlBvKJEA0jRRmckwywTkE6yyqnas02jl5NvuN/ubTBowN6T3d0fmpFC1O3dWRq63WSXn8416qruvBqu4o8fdb/RM0iVaGDHCfKUE2gBrIru6MjciWrodmrzFajy3c0tVGRDFEpftzth73aG/CwRVcrr+qmJKmum/Nr+mJjOTpJpX5Nv7OTKnQMogzVVKmB7CJEIzVRBWfTwmluqtHV+3q9uUyaJnYFrBTXVTlV2wjiUq/GJ/r1m/Ee3Zz/j76YW9FCTjYGSV5dX799e2Md7g2lXo0//6Be2Gib8YcqdPjfFVWoJlADZsvuCIlMiiI4mxaavcpWNXpVF54O1xIgNVb0aFeyrf3QUmmsTwfP7mxvQe20MQicjfRqpHW5stbcYGVN85Xbmp/q1fi0zzBtqUIH6qVOgYlvWKMK1QRqwGycrRC7IgbnbE8yrFt2JezV5JcBWgKkTSt6NCrZ9kF88OiAphe/09SctDD1oy7/doAJhp706ODZAR3s+NdadVUfv3pb85U1zU/d1vziLn3q8U1Q7fPmTofq1eQr2d30xrTXWBTrVBOoAfMQohGLIgbnvLC2X4xM9GtPdVWV6tbr3VxsX/7281VVWn3PQ30qDVkDmTQ+7h7ISq/s0MjcXS1oTV98XtdBqtGBDQ716fiVQT16oDkhdO62Low/4mGHwrq+/lvzTU+pX09m4I2MiVXobqKoUhOoATNwpkJkwgbnvIXmrFajby60Ly/M3bX0MztpVjyb341MD6p0tEc3F1tbgvfq0W6BbKhHeyUtSFpYrIuhKaweHXxnh75otuR42k69/NNGf/XI88H6qU1g8mvLTtgqNYEaSA9nKoRCcHaXyUmG1j5bN60eXEkqtW/TWmljY7dCL6p1Lfm4i/DA8sZEC3XV5LRjZENlvjmJNCOb3mTudeUBgRrIFvNHShiH4ByeydVouz5bOxsTAtWryXfc+pjX9G1Vkls1utoO5Gz9nYZV/b31iUNGWjnsmPqaCoJADZjvZ2nfAWTHtm3bAgfoT289svFVNEX8P0vS4NEHNd68PD9xR50rsbWt6sJEtqqgmWCt7o/0uLdnlP/TbsfJQCtHHqvQbsKOn2HGbgDOCNFw1Rp8gwzARQ7OXuQ/CPTphene5uUVTR24o8vl+qZr1Mr3deGAtZ+arb+7q6vS8TjaXWdjq3Z1n9hZ+/d/Ny7vfTybb2KKMs6EGVfDjOcAtsrmaIlYhRlgi3Ii8yuTvdERaCxft6ypuTWpsqKZiRXNOFx3ZGKXTrAqhwd1/X3itqZK/Zr80wM6OLb5MauV7+vjt+9qvlX6n9jVZWUOy6oc6tdvuq7ika4ivo6chGn5oN0DCI8zFjaEadVAMCb3RkeldHZA7413BLtNV+jV+J8e0vExhiNfurwpkSSVdui9rmtE1/XtxlbhvdoTzb1LVN5fQ15EEagJ04A/29Z51RQawTlZTie34jyeddXKdd2UJPVoz1iXXt2E2P1dTP6b1Gbv6PxUex3uLfy8Mane1+ut3SknvG/MkgZeP/4FrdwTDYDuCNEFFbTHGeFlLbAVQXb/JnXVqnXdbG2GM9SjPUNmvDGJQ3b/TmYIEqiJCIAzQnSBUHU2A9W0eJnaM8vfNxxeN9GhOg1EgxBdAFSdzUNFzZ6pAdgURX6O8JqJB9VpIDhCdI4Rns1VhKoagTh9eXk+FeH1kjbCNOAfITpnCM7ZkfXKGiE5+7LyfMv6ayVrCNSAN4TonCA8Z4/p1TVCMkx4Lpr+OskzwjTgjhCdcX7DMyces6QZEHIZkj/4IfhtX3o42uN5OX7GpfU8Lco4Vqtad6bs0WDA3TytxxkcCrYeu9/xgmiBImB3g4xKPjyv6sLu1vbMvZr8cmDL9sy12WUdmVqzua27kelBvcVOdbHJVFiOMrSaJor/m2FBPO43gZl67kZky46Tm/RqfPohHfc0XtZ1+dSPmpnbOiaPTOzQH17ZrpKPUN76m3r9m7CBC4qA5JIxaVWea7P3mgEaUXLaDjzoToZGhY48B+K0+H1MUwrdcVaPc12Frt7X+Ym7zpvoaE3zUzXN/22H3ruy3Xk9cOsGOjYW5u5qam7FthjSDWEaaCNEZ4Sf8Bz9SWZVH3upMD/er/GJn3s64tLCihYqktSr//fbYj8NnYJ0N6kHZkKy+br9jRIM2X6r1qk/v1PTq5GJB3XilT5L+0ZdtfJPOj/R3KWyclfnZ/scPsGr6/Kr7QA9MrFLJ872NQN3XZXZHzU1tSZpTTOv3teTbmHchd9txgnTyCN6og2XbnhuqJz6TlNz1n+xb+fwzFIloZWjwS1gpBYmihaS4+6JzqKUKtlOz/tcV6ElqVpXza33uXxHz06sNL/p1/StnSq5XMdpfLW23o3PPaLjY5Hce19jFdEDeUB6MZQJ4VmSVL2vj5oBeqTUq4WK/57nTpW/tqok/foDAVqSe1tHbIoeENFdSpXswlahu23ZPvaAJksrmqlI0n91s6otfc2V+XbIdhpfB48+qPGpxhyX+flVHR/rC33XJX+tHlSmkQckGMMYE54lbfpYcGKXTgzf0xHbyS4+WEP59ANbqygFlEhgIDAjDnbPqxir163XSu4r0lEo9WqP4w979GhJUtjx3AFhGkVBiDaEWeG5oTb7Y7Pi0a/ps33S7L3Qx6QKTXUZOef0HIwwXHe+hooZqn+uPTZtH3uGeyWtSZU13ZQcKtt1fdsM0CPD8Y3DhGnkXTFTjEFMDM+SGrPEmz1zrYpxLYJjFq0KTWAGmmKsWhemf7q6qi9a1eOJ/7EdQwd/26+RqTUtaEUfzT6gkm1P9L2N5UqTmNhNmEZeEaJTYmx4lrSpjaO0QyciqhgXoQpNaAZ86HxOU612Vl3VhVfbY+j0WYc+5qHtOjG9oiNTa1qYqul17dKJo3arc0gj0w8FnyAeAGEaeZPPJGMws8NzQ+VUrdnG0avJd4Itf7RFjqvQkQfnD34wblMNpGS5LC0/Ju3b6/N2S5Zv9koDkd6reDg95yN6PVhfp6YH6lp5VTclSXXdnF/TFxtLgkoq9Wv6HZtVOSwGjw7oPd3R+akVLUzd1pGprddJc2UkwjTyghCdIK8BOtUBvnxnYzm7KKsUeapCxxKavXjpYarRhbEkXX1XunRRGj4j7ZvsfpPrM9Ll09Ki3Q9L0ot/kfb7DOOmiLhibXaVuq6v377dLGRYlHo1/vyDemGjqtzF424/7JUJzwTCNLIu22kmIzIRnqXG+s2tNUgndkVXpbBUoZ36+EwXaXD2EoQzVY1ekpYt3w6YcHrOMNcw7GB5Rjp/2uUKFenSU9LXZ6Q3PATypLlVob38e4ShOvVxWJJGejXSulxZa26wsqb5ym3NT/VqfNotTNdVOVWzrO3fq/GJfv1mvEc35/+jL+ZWtOB158OE+A3TBGmYghAdo8yEZ0nSqi487aHfLoDa581dttSryVeiO27cIgvOUVaPjalGL0nX35XOX7T/8egZ6ZnJgG0EZemlQ83LJencJ9loRwgrSHjepCSNviY9M2Z5vDr+Tounpau/y25F2kmEoTr9QN2jg2cHdLDjX2vVVX386m3NV9Y0P3Vb84u79KnNOF2b/dHyaaK1H1oqjfXp4Nmd7c1WXHc+TJ7XME1VGqYw45WTM9kKz1KjcnF7Y7b25Jfu/XZ+j/3135obtJT69WSCk1iCiCQ4RxVyja1GL0lvPuUe9q6dlq5dCRaAr/45zJ3LIOubhqbRknTNzyK+v5PO2b1p2SvtOyedUDtIX3pX2n8u+N2Nmt8qtBcRhWqT2j4Gh/p0/MqgHj3QnLMyd1sXxjt2G7SsqtT4NNG+aDF4dEDTi42daBemftTl34bYgTYGhGlkBSE6YtkL0Nr00d/IRL/2VFdVqW693k1LaPr281VVWj13Q31bds3aUP5po7dv5HmPvXwJMio0e5V2NfrqH5sB2qbyuVyWPvtzMwBWpJMnpQ/8BLaydCmmHSCyYPiwdPCYtO+GdO1Q9+u3dGuh2XdMGr7Y/Lv9q9F+U4TqfksMoTq1KvU7O/RF81PDzt0G25/6SePj7p/6lV7ZoZG5u1rQmr74vK6DhlSjrZx2cu1EiwfSYt6rJqOyGJ5bbi60Ly/M3bX00jlpfpzY/G5ketB2LVLJugVtMuuRepGp4OxUjU47SA+fkSZtKp8DY9LLY5Ielq5J0kXp6jHv7QPv+wiOeTJ8WJo8ZgnDN1K9O4mJowrthfX4WQvUQz3aKzXC8kJdNbU3VLm52KxCq1ePdqssW46zsFiXqXGAqjRMZuarJkOyHJ43WCexuGlNcJGkUvs2zvFoVX9vBXIDWjlCh2cjepENMPia9MaY+3WeOdNo6ZCkWzfk9izZsDzTDN6ShkvSYlEq0mPdH89I/bJYVehushyoO2zsVuhFta6l7tcyBmEaJiJEh+AlQBsdnpvsJrHY2ZiMol5NvuOhh678n3a1OqVWjlwEZ9Oq0fs8BL6BJ9qXv/9GUrfbLEkzzdA9+qG0+88hJthhi+X/az+eo79P9a5sSKsK7SbCQB3b2G8NvyM9DuPqmr6tSnIbo6vtokicW39HzU+YJkgjbtl55RgkF9XnBNT+/d+Ny3sfT+6pFio4mxCa7Rg7yTAiG33WhxvtIIWbXBij5XL7DUrr8UV3Ifuo/Ven66qUpdKY21hp2U1WW/ueB48+qPFmq938xB395pbTJPFVXZgwr9XODy/90lSlEbfsvXJSlpfqc/wsq3KoX79J4LwdODybGpy9SLs32snyN+3Lv3jC+XpSo42jNZnwxWPx3aciuF5uXvhG+sei9P3FdgV6+LA0aciqHCZWobsJUaX2Fqjr+vvEbU2V+jX5pwd0sCNM18r39fHbdzXf6nKa2LV5ZQ5JUp9emO7V/NSapBVNHdCWY20cp/l90lt/R4mqNNJGiPaI8OxXXd9ubFPbqz0x/ZZCBecsVaM/s2z88Wu3d1CWNo7hM/lbvzhRS9LlQ1vbYIZL0pOvSfupQEcmgkDteL6orGhmYkUzbgcp7dB7Dmv5N5avW9bU3FrXY41M7NIJA1fl8MtLmKYqjThk/9WTAAJ0AJ769oIpVHD2wrRq9PWTlgmCZ6R9Ltd9/6n2cnmTKe+kl6U3KU5+YfnwvjUxc7EiLR6SLpWkFw0I01msQrsJGKi3Vqf79MJ0v5am2svUbVHq1fifHtJx15YPqXR2QO+Nd1SuAxwna7y2eBCkEZVt6zybHBGezUJ4bjI5hFw/adnFsMtug9brvvjV5ir01eeaLR4J71ho99im8rhaNmAZDrlV93JZmrFUqEc/TLcv2uTnb1QCvhlrn0/qqlXrutlar3+oR3uGghYj6qqV67opSerRnrFoixqm8nK+IP4grHy9DY0QAdoMBOcM2Qi+klSSTriE3+WZdoAe/ZA2jjgNjElvfNXeZfLaIenXP7h/QhCXIgRoKbLq9GAkvco9GixIcLaiKo0kEKI7EJ7NECg85+1E7MS0Je86K51dq8dl6SSrRSRrrzR5pv24/6PsbanCJOT9dRsyUHO+CY5eacSNEG1BgE4f4dkjU/p3N7VvSBo9I73s1nqwZNmVsCSdM2S1iCLwvXZ3xEx4vqatNVYRphPlNUwTpOEXIbqpW4BmAIsPwTlCSVajt7Rv/EXa16Ut4/2n2pMORw80qtjLNte7Zbn8z3J7X+OBMXbby5Oivo4DVKcJ0+F1a/GgKg2/Ch+iqT6nh/AcUprVaGuAbq0/3DXcLknfW769drodqB1VpEuH2t92TkCEd37W7o4aVWhnPqvTpmwxnlX0SiNKhQ7RVJ/T4Ts8E5z9ibsabd0cxe/KEb+w3z9ti0XLulzDHm9TWEvSdXX5FMCyHrfUZe3uhPC63ozqdCK8nn8I0vCisCGaAJ08wnMM0qhGf2aZFOhr6bW90sufeLuqdYm7yQSXuMukG9L5Q41PBA4e2xqmr89Il09vXuIuyZU5qEL7F7A6zXnLWZBPPgnS6KZwIZr2jeQRnlMQWzW6bOlp/n0Mx0dgixc3T/K0M3zGjNVQeI17Q5gOJfASqRb0ScNNoUK0lwCN6CQbnpc2T1AbCNA3u7xk+WZvdqqfSS55Z+2r1TeNNgIvmBAYozHpxcPSJZcAPVySDnqY+Bk1qtDRIEz74vfcw+odCKowIdpPgGbiRjjJhecl6fq7ztW30TPSM5Pu4a3zo+5NStKLf2Eim9Wy5YHyNDGwiQmBPo35e13sP9f40pK0fKP9hnLgsWBvKONkehV6uSwtP5b8Gw4vCNOugoZn6/cEafiR+xAdtvpMoPbH8yAW+kS61N6Bzcm109K1K84bfyzPSOdP2/ygpSJdekr6OuS2y0kwbQMWpGRvIzSbUPXPXBV6Sbr6bqOiP3xG2hfmNW/Ztj2Oret9TkLMe5gOG547f8YyePBq23qOnwlxtW/kdSAKI7nw3GSdeDb6mvSMpV1guSx99mfpWmuFh8PSBzabeizPSCevbL29XYU7K5VUuxNqEUO0qQGuSH+LLD0XOz+R8rvqTKfONdSjDtF2PD7n83T+ijI8Bzl+juMTPMptiPaz+kaYyQd5GpCCSDw8t1x9Tvr6gDTp0q7x/sPtdgO7ELy8JNfe50278TkEcdM4nUhNDS9uTA3CScvT3860/4tTO1eoEG2tQkuJheiWAoTpuMOzn9+V0wgFj3LZzuF3+bowgbqo7R6+Hqc4TpyDr0lvdFll4JkzjZYOSbp1Q1JHiO7WK7rvmDR8sXmC/Vejz9SEj8ndmLIduBvT759pvD5epgXUTkbdv86gK2m0ZPn0KoT3D3W/Tpw8jgFZbPFIMjxbj0GfNJzkLkSHXf+ZQO0u9fDcss/DMl0Dll3Zvv9GkgFLe6Ulyd5oQnI6vDzuSTwHsvb331hf+4Z0LWQAXp5pf/o1XNq8aVCSfExAzEKYTiM82x3P6X4QpIsrVyHaLUAHeVFFEahNHpj8Sq11wwi/NL8K3ZLEJMOsBSU0uP3d4nzdmjgmDB+WJo9ZPpG6EfKAll0hRz+Udv/ZfeJzEnyGadPOV37Ou0ncd7eqNEG6mHIToqMO0G7H8PPCzkN1OrPh2bqm8S+ecL6e4+3/z7LLW0E3FslgWDb5RGb0WvVRTATMzPNlrHs7mF9X/9gcLw43NrS5+udojx+GxzBtSvHHtPDc+fsI0mjJRYiOO0A7HbMI7R6e/o+mheeWzyzL1/3a5wlzudyuKrVOilkSpBptWADK48ko6P8ptfAdxQRBU8eHKC3PtFfjePFYuvfFjY8wnfQ5Ku2WDb+/2y1IS/kcv7BV5kN00gHa6fh5C9SZrT63XD9p6U08I+1zu265eeEb6R+L0vcXLUtdHZYmM7Aqhx23CUYpB2ZOMP54ebwSDdqGveFKl6WNY/hMNpbC9BCmk6pKZyk8WzHhEFLGQ3SaAdrt92U9UGe6+ix1LE1XaiyD52hJunzIZomrkvTka9L+jFWgvYg5AHHiSIdxQVsye5yIyvutTZ+6jTUG8rCSR1xhOqvh2YogjcyGaJMCtNvvz9KExMyHZ2nrJgcnPKzP+otS+3JrNv1iRVo8JF0qSS9mLEwnVCXk5JA9Tn+z2MJ153PR9PHDL+snXi/+JTuTj60SbvHIQ3i2IkgXW+ZCdNgl7JKWlf7pzAfo5bI0Y60oe93gYK/08icux6tIlw5Jtz40ty+ayjJCSixc5ylUL8+0P/Ea/TAbbRxuYm7xyFt4tiJIF1emQnTWArSVqe0emQ/PUkf7hqTRM9LLIT9WHRiT3vhKerP5Ue21Q9Kvf3DvrU5KTKGZQR6dYg/XmQ3VZelkhiceu/HY4uH1XJTn8GxFkC6mzIToLAfoTqYE6q6/OwsntC3tG3+R9kVVEdorTZ5pnyz/Ufa2yUscYgjODOgIyu65E0mwtj7PjR1/liy7EpakcxmdeOzGY1Xa7RxUlPBsRZAunsyEaDdZfvGlEahzUX2WNgfo1ioaUfckprXrYcShmYEbcet8joUO1aZWqd9/qt0HPXqg0fq1bHO9W5bL/yxLg83LA2PZ6Z3uUpW2a+8weY3nJLC7YbFkIkQ7DcZ5ewEmMSExF9VnafO6rMNnpDcyNiveToTBmUEaaYu8Wm1ElXpJ+t7y7bXT7UDtqDmvouXFr7LVP+2jV9qrvJ277XSrSiMfjA/RRQnQnaKekJib6nPLZ5Z+xDgDdNhdD7uJIDgTmJEVkVWr0wzU1tV83LRW+pEaS2ZmnYde6W7yft7u5BSkqUbnh9EhuqgB2iqqdo+ushSgVbZ8nBp0O+4l6bq69E9bNlGQ/O966ITgDEja/DzORqB2WM3Hzka7WUma9LJSUAYEDNJFOmd3Ikjnm7EhOrVtbg0WJlA7ylR4brJWh/VNIwx7sakX8YZ0/lCjl/rgsa1h+vqMdPl0e8m80Q/DrcwRMjgz2CLvIqlSG9HykWM+x7Eih2cvCNLZZ2SINnkjFVNEEqizepJZtmwv6KknscmuF3Hx4ubl8ewMnwm2hBXBGQgsdJWaQB0dtnkPxa0/miCdbcaFaAK0f0H7p4t9khmTXjwsXXIJ0MMl6aDPJfNCnGwYSAF7oavUhR7rQggZntPcgdc0BOl82rZu0F+OAB1eJG0ehTvJLEnLN9rLVA08Jg34nD0f8GRj0MsPyKTArX9bxrmy9FJzFY0oVvyx9kR72j3VIH7HMw+90pzDG9zO0ZwPsicTIZoXnzexLKdTuEDtA1VnwBih5tEwzjUECc8+bs+5vIEgnR/GhGgCdDie138O8/EcJ5oGqs6A0aKrThdE2PDs41ic0xucztmcJ7LFiBBNgA7HNUCHGOwCHTPPAjxeBry8gEILFKiLMsb5GdP8PiYux+bc3kCQzr7UQzR90OEEDtBWVKedEZyB3CBQN8UZnj3+Hs7vDQTpbEs1RBOgw4kkQHciUDcQnoHcKmSYjrJlI8LfW/RzPf3R2WZkiC76i8qLWAJ0pyIGap//ZwY5INt8B+qsjW1phWcf96Ho53yCdHalFqIJ0MElEqA75b1/mvAMFFruwrQJ4dmKIO2Kto5sSiVEE6CDSyVAW+WtOk14BmCR+TBtWni2Iki7IkhnT+Ihmj7o4FIP0J2yHKh93HcGMKCYfAXqDI1pktK7vwRpVwTpbDEmRBf9hdONcV3rZNsAACAASURBVAG6U1YCNeEZgE9Gh+mshGcrgrQjQnS2JBqiCdDBGB+gO5kaqD3eLwYrAHaMCtNZDM9WLH/niCCdHYmFaNo4gslcgO5kwoREwjOACHkO0ymsdBH774+aw/8nzVxQq9Yt3/VocCj8cQaHenzdliCdDamHaAK0s8wHaKs0qtOEZwAxSjRM5y08WxkQpGvl+/r47buar9j9tFfj0w/p+FEPQbi6qguv3tN8ZW3Lj0YmdunE2T4Nerg/hOhsSCREE6D9y1WA7pREoCZAA0iIpzAdZNzOesuGV2m3dlTv6/Wn72qh2/VKO/Tele3OIbh8R69PrHQ5Tr+mb+1UycPdIkibL7UQTYB2lusA3SnqQE14BpCCSKvSRQnPVmkG6ep9vf70ijTxoE680mdp36irVv5J5y3BeGR6UG/ZVaQ3BfFejc89pBfGehqBu7qqy3+9p5m5ZnW6Wxi3IEibLfYQTRXan0IF6E5h+6c93J6BB0CcQoXpIoZnq7SCdLWumlvvc/mOnp1YaX5jV0mu6/KBmmaarSDjc4/o+NjWw1ROfaepOffrdCJEmy3WEJ3lAB3VxAI/Ch2gO4WpUNtgwAGQJF8tHkUPz1Zpt3bYsobkXk1+OaCD1kxgrUJP7NKnZ/scjrOqC7tva16iGp0T/qaLZobliWr3hHfS+ZFLh/G5QR0fS+Ehy/OA6SToycUGAw2ApK2vr3cP0oTnrT74IfIiStxqn7fbPcbHnQK0JPXpNxPS/JykyppuSp5CNMz1s7gOnGYVujZ7rxmgfdymfEevP33bMUBL0tK/w90vN45V6CIMmm4++KH95dP6+joBGkBqIhuDAo6BmeXwf3X9tDYxP9cex6Jcrx7tUrDbM9zbvPRf3ax6+41Oucn3FvWIXKJl1WQ+ilnVx1POQdhW+Y6ObPQ79Wp8+kG9cNSyDE21rsrnP+nvEd5LKwK0R/Q+A8ig1njkO/QU+RzgUJF+dvd3ybd1VFf1RWvpu4n/cVlZY03fViV5av/0c91GfjLjTQSsYgnRab47qpy67a8KXb2v1y0B2rb1Y6hHpaPelqTxixeFT10CNOEZgKk8tXgUOTh7lGiQrq7qwqutVTf6Ne3Y79yw9O+65LHt0891nWzbto3zXooSq0QntdbjR82ZryOlXi3YLHbeqfLX9tqQ43Mee6eTwEC6GeEZQBG0xjrOAYn3R9fKq7opSarr5vyavlhY0UKrAl3q1/Q79sW0wd/2a2RqTQuSFv62qtpRpwmDAT4pt6AabZ7IQ3R6Vei6Lr/anh17YviejtjuPGRhCd2a2OVpuZkoJdPGsSQtW74d2JvSMUIgQAPICU/VaKkx7hGkE2zrqOvrt29vLFO3odSr8ec7Wjw7DfXp/5XUCNyVuzp/qsdmZ8K6Lh/w+Um5R1Sj05NIJTqZyYQ/Np/8zY9bZu91v83GjNpeTb7i/hFN1OIN0EvS9Xel8xftfzx6RnpmUhqI+xgRIEADyBnruOUaqAnSDUkF6ZFejbQuVxqVZVXWNF+5rfkpm/lSG3p08J0d+qK5zN3C3G0dmevV+ES/Hh2Xvp1f0dJc43hePyV3QjXaLJGG6NSq0NX7Ot/8iGRk+gGVJNW63qiur//WeiK7zbbNmiXpzaekRZerXDstXbsinfvEIQRHcYwIEKAB5FzXSYe0d7iKLkj36ODZAR3s+NdadVUfv3pb85U1zU/d1vyiwzrQQ9v11pey7Fq4pvm5NWmufZWRiV16a/w/enaikT32Ph5dBKManY7Ylrhrib8KbWnjKO3QCbvtOB1u9+2W2bZ11cr3deHUsl4/sKzXD9zRhdlV1TwuQ+NVrFXoq39sht+SNPqhdM6yRNy5D6XRVkdXRTp5Mr5jhPHSw64BmqXrAORN1zEtY2snRy6lNxGDQ306fmVQk63T3txtXSg7XHlou966Najp6X6NlBpV7ZFSr0ZK/ZqcG9RbZ/tU+/d/m1fuvhyekyxsWFcUkb0NSqsKXTll2UXoHW+7/0iSqnUtbfr+vi68elfzm/qh1rRQWWl+jPOQjnsO6M4S6YMePiNN2rRaDIxJL49Jeli6JkkXpavHpP02Pc5RHCMIqs8ACqprv3TR2ztSW/Zuc7vG/Pyqjo85tYA2V/M6av/Tm4vxfQJONTp5sVaiY3+3VL6zsQ/9yPRD/lbWqK5trMoxMlzXhaebAbrUr/GJxtfIxjTcNc1P1fT6bN3+WCYZfE16o0uv8jNn2pdv3YjnGEEQoAEUHBVpQw31aKNUtFD30DJqp66breBR6tWeEHeHarQZIqlEp1KFtq7vPLFLb4WoEi9M3dWC7RrRO1WzbMSyMPWTKiHWi06kCr3PwxIjA0+0L3//jaSO20RxDL+6tG8AQFF46pMuakXapE1Y/LJs2jLyvMtqHyFQjU5WbJXoeJ/Mq7rwtPfFz71wWiN6cGynpida363oo6ir0UUdCK0I0ACwhev4l0ZFerksXV/qfr24pbEtuLUFdKQnUABu70vRrz9E0B5q/JuGAkh02+9o1C27EvZq8ssIdhIs7dALLoXU0is7NDLXXLpmsa4gD5tRS9Isf9O+/IsnnK8X9zEkAjQAuHDtk06sIr0kXX1XunSxMV9m32T3m1x9TrrUbbMGNY73hofjxaauSlkque4caFnAQNL4uP/CXW122dJ++kAsOyAjeaFDdNKtHJVTtfYTcaJfe6qrqtisnnHTsjzbt5+vqvJ485uhPpWGJA31akTNdaK7vats9kItSBu9UH7ehSazqYoPn51uX/51wDaMKI5BgAaArlIN0tdnpMun3Zc8TUNkbR11/X3itqZK/Zr80wM62BGma+X7+vhty6IDThuzle/rwr979MJv+zRo/VS7uqrLf72nmbnmhEJfq4gFQ0tHcmL5S8b5EcNGU76khbm7G4HaWXNtx+Z3I9ODKh3t2RyMi+T6yeaqGmpWFFI6BgEaADxLPEiHDc+3NvbLlkZ/6Xy93SE+yYxSZUUzEyuacbtOaYfec2wfXdP81F3NT3W5/RUfq4h5wOYr6cpeO4d1RyE3lfbqGyq1b9NeiK1Hj5YkVdS9uhyiF8qoKvT1k5YdCEuNJezSOIYLAjQA2PO8ZXgoZemlQ5v/abQkXfPQmmFn+ID0ckztGpFUo/v0wnS/lqZWnItqpV6N/+khHXdt+bB8um3zs/G5brdHFoX6i6axKofdjkJ2arPLOjK1psb60XaTBnv05PO9mqmsSZUVfV3d7rhEXnt7cGlkOIIXQRoBelN/Wkk6EWCnwSiOITlWoQnQAODOMUjHUY0ePiwdPCbtuyFdO9T9+mlwCNJ+DB7dqbeO7pRUV61a181Wi+hQj/YMeSycjW3XW7e2S9XmMSRJzdunsCMyLR3JiPxtUZZmiw7+tl8jU2ta0JpmXr2vJ20/ZlnVx1OtxdGjmVGbqOWyNHPI8pFcyf9W3VEco4UADQChxB6khw9Lk8ekgdZnt373AliSvm9eDDPxPIRgS971aDBs6B1qHiPEIfyipSM9sW/7bbSh7fpDa/m6yl0dOXB/8yTF6qouHLD2U/ubUZv6k/r6SemkJfyOnpE+8Bl+ozhGC5sEAEAkHAsPocfZMemNc5YAnQEsFYuUBC6r2r0LzlIVuqV0dlCTC82twyt3NfX0XdvrjYTc0GVDUi/2La0Xf5H2+RwUozhGCxMJASAZqW/GcqNdeNn9WIr3ozjsqtG0dMQvY70JcejRwSuD2jP7kz6ynVgQbEJAqlVoa/gdPixNngvX/xz0GB7wAgeAYJKZaBjSrRvS9VY7yGONCncM5xI7mdjFEJmW2xA9eHRAnx71eu0elY7uVOnoTtWqqxuTCvYM9UU7ISCJysDyjCX8BlzEPopjWNEHDQCxSHSioVfWzbiuHWovibqhJI2+Jr0ccI8BOxFMMAT8KnZPtI3BoT6VxhpfQQN0qlXojU1QDgcPv1Eco4UADQCxiq8/Oi6VRrh+6TlpOd7flPrcJORaoBBt/MdHJkqkIlBuv+Mf/X2KxwAAFNbApHTuh8Z5z/p17ivpxcOWK1akkyej+70Fn2Bo17pCXotXZO0c9B0ZwPoRmr6Rrnu83cBYu0ctimO0UIUGgEQY19Zh1/c8sFfaf0761e8bqz5Jki5KV49J+zO0GgjQlNue6LSk+tHRsmV/1munbfrQHLz4VXsAi+IYEgEaABJmXJB2MjAmnTjc3v321g1Z9xOOGhMMERd6opNg0uAFAEDa9lnaBb//xvl6fnG+RYKoROfJvnPSB+fSPwZVaABIRWaq0XpMGlZjPenFxW5XhkesF50s35XovGyygmTxAgaAZGRjvLVsyDI8HPtvY5UOxIF2jgjZvkiNeuefAGOXVAKAgjNpfL7+v+3Lv3gi2mMX7byL1BCiEbtsVEUAID/MHnfL7UmFKknPRLjpCpAgQjQAAEWRRDX66nPSmyel60tbf3b9pPTSofb3o68ltg04EDUmFkaEfivZDs5mV0MAIL8cJxkmYfGipdrsYPTDaLf+7oKl7hA1KtFxoi8LAFA0g790//nwYenEV/EGaM6/m7BzYTy2rfsoFbIyh7PCTypkWTsAMI5jeEri/LS8JOmGtNz8fuCxxq6FSbE5LxUls9hlEs7H0aOdA7HhBQsA6Uq1pWNgr6S99Dwjt2jnAAAAAHwiRAMAUDQmrRkNZBQhGuGxKgcAGKuw47FN3zcraSFKhOgIFH5SIQAAQMEQogEAAACfCNEAAACAT4RoAACKiMmFQCihQzRN+gXHpEIAMB7jMhC9SCrRBGkAAAAUSWQ7FhKkO/AxGQAAQG5tW/fxGU9qW4ciU/jYEADMwzm82Dg3R4+JhQAAAIBPhGgAAADAJ0I0AAAA4FNkEws/vfVIVIfKnEJv+80ESgAAUEC+QvT6+joTEwAAyIu8F3xsCj15L/rZFfaYVBgP2jkAAAAAnwjREbB9V0ubAwAAQG4RohGOzUeBtPwAAFJXwFYOJIsQDQBAztkWN/LeDw3EjBANAAAA+ESIBgAAAHzyHaJZJgUAAMA8tvtWIDZUouNUlBU6mFwIAMYq5HhclPMvUkWIjggzfgEAmVHASYWcpxE1QjQAAADgU2Qhmj4cdCrkR4gAYBDG4eIghyWPSnTcitKXVcCPBgEgk/I+XhflvIvUEaIjRL8VAADm4fyMOEQaovkooeBYpQMAjMH4C8SLSnQS+GgJAGACWjlyiSJmOgjREeMjo62ohgBAshh32zgvIy6Rh2jeDZliSVq2fIW1XJauezhO3qscAJBVQcdnr+O/6zGs56Rwh8Jm5K709KR9BwrjpYcTCJhL0vV3pfMX7X88ekZ6ZlIa8HnMq+9Kly5Kw2ekfZOB7tm2bdvYMh4AEhBdFTrk+L9clj77s3StYv/zE19J+/aGv5stBW3lQHoI0TH49NYjKbwzXJLefEpadLnKtdPStSvSuU+8BenrM9Ll0+7HtPPBD7aDGUEaAOLlGKD9FnGCjv8btz/pXNBpqUnaF/D4HtHKgTjFEqKf3f0dT1w7cVajr/6xOdiVpNHXpGfG2kF5UzWgIp08KX1wzvlYYQdPAEA2RTH+bwrQJenF16T9Y+2fLy9J/3w3zL3cqqBVaFo50kUlOiapVKOHz0iTNu0aA2PSy2OSHpauSdJF6eoxaX/nx2hl6aVDm/9ptOT8UZwbqtEAkKhwVeiIxv/lmc0B2u6Tz4G90n6XQg6QEQUJ0au6sPu25iVJvZr8ckAHh+yvWZtd1pGpte6HLO3Qe1e2azDCexnK4GvSG2Pu13nmTKOlQ5Ju3ZDk0os2fFg6eEzad0O6dsj5em4I0gCQiMjaOKRw4/9np9uXT3hsHYwJn4gjbrGFaJNaOmqz95oB2gBxtXTs6xKgJWngifbl77+RZHOb4cPS5LFGpUCSdCOKewcAMF3Y8X95pvlpp6TRD2Pvd95AKwdSUoBK9Ko+9lJZbrq52Lpur8Ynfu58xeHuD106EwzDGOtezfaLajQAxCqaKnQE4/8/rzQvlBrzclJkShEvaevr66wRnqBYQ7QJ1ejKqdvBqtClfr1wNqZ2jUSWu7Ox/E378i+ecL5e1AjSABCLSNs4QlmSvm71T/8yuTYOqtBIUWSbrRgZhqr39dFc4+JIqTeVu+D4JiKNF761V+3X6VYJWnjHDADBmDV+3miv6DH6++aFpcZqH+8/J735nPTmSelqOfbNVtIu3qXFyByWc7Fv+53eu6W6Lr96VwuSNLFLJ573dpubC82LIz3mTBqMwvWT7V614TPJ9aq1sJMhACQj7U86pUZ/9JtPSedPN1b4WKxIixelS4ekk89JVyPYSZcqNFIWaYg26V1QbfZHzVQkqV/TZ/tSvS+pV6M71+ycDLbrYGgOA7tZ1RQAMJ85bRxNy5aFpXd/I51srjU9fFgabX4Nt65QkS49FS5IO5w/qUIjSbFXoqUU3jVV7+t8czLhyPQDKnm+YV3fNlu6RjxMHPQjtRf21ec2B+iUlxwiSANAOMYF6E6XTquxRvQP0hvnpJebX2/8IJ04bLlexBuuFABVaLNEHqLTfzdkaeMo7dCJowHD8GJdlfJq86uuWjXK+2gRVzV6uSy9+bB0qTXRo7nofdJtHD4QpAHAXWbGSaeCzb5z0mjrm4vBqtFUoTdJP3cVVyKVaCm5d0+VU7VmG0evJt/xubpGta7Wy3lh7ramJlpfNR15+js9u3tZr59aVS3gfUusreP6SenkIcskjzPSBylXoK1cqiWZOUEAQMJcx0dTqtBS93k3z5xpX74VzV4ERQjQVKHNE0uITu1dUfmOplqrcUw/5LgrYXBrWpi7rSO7l3U5rsp0WFvaN76SXk6pB9oNQRoAPDM+QA8Mty93W0J1y8ZfPqQxmbBaV631lfxvd0UVOl2JbrYS67rR1ft6fWKlcXlil94K0sYxtF0nvtyuwY7wXavWdfPzn/TR1EqjTURrmnn6jvbc2umj37rBcQOWKNaOvvpcu31j+LA0ec6c6rMdh/WjJdaQBoAW4wO0tDkYxyVUG8eqLuxu7RvRq8kvB7oU2uqqzFrP+xalfk2/s1OlyAt1zqhCmym2dg6nABTPE2FVF55u9kGHXI2jM0A3/q1HpaM79daXuzS+8a8r+mi2Huh3xNLWsTxjCdBnGpM5TA7QLVSkAcBRJgK0JOmx9uob3arLQTb+ClmBrs3e87HxWl2XD9Q0ZRegJamyoqmnl3WhHOouhUahKX2J9UTHp27ZlbBXk1/6rw57NtSn43P9G98uLAYL0bHY2EjlsPSGge0bbgjSALBFdgK0JO2VnmyefRevuG+osrE9uKTdj4X6rV6r0B83V+zyoj23SlJph6a/fESf3npEn94a1PREa+O2Nc1P3FHF6SARogptrlhDdBLV6MqpWrsPeqJfe6qrllU12l9fW5aw/PZzy8/89jaP/U+7Gr0QvD8q2mp0ub2RysZOURnTJUgTpgEUSbYCdNOvDjQvVKSZGYcrlS2rRh2W9u/tftyQq3G0C20eWOZWaWKXPr2y3dK20aPS2QFNT7S+D/6JtFdOeYkqtBkS7YmOw03LZy0Lc3fbT35Ha5qfar+gRqYHVfLVP92jR0uSKpIqa7opBd7ZMLL+6E07RX0jXfd4u4Exs1o+XHqkJfqkAeRf14KBqQFakgYmpdHTjaLO4mnpTTU292qdZ5bL0syh9vVfPNb9mGEnElbv66NWoa3Uq4WKe0W6Mt+cW6VeTb5i3xpaOrtL43ONHLEw9ZMqR2P8BBxGiz1Er6+v2w4KkU0yHOnViJfrVdbavU2l9m08vAfu0N6QRaVe7fF9e4/8BGnrTlHXTrer0t28+JW3KkCSCNIACirTAbrl5a+k759qLLG6eLqxc6Gd0Q+7n39czgXe8oNl34iJXToxfE9HXPsvVvX3ViGu1K8nHScO9uk3E9L8nCT9VzerimWSIVVo8yVSiY4zSB88O6CDHq5Xm13Wkak1NdaP7jYr10X5P+2PhUZ6AlehWxyr0UVGkAZQMPlpWdsrvfGVdPVd6dJFm5+XpBN/kfYFL+B4zQ212R+bvc3NBQdm77nfwHJ+H3m+z/X8vme4V9KapDV9W5UUcYgmQGdD5ts5krWqCxPdP+rxK3Rbx75z0gfnIrkvW42lU/1o/U6XJfAkBhQA2eYrPLfGw8TG5KDj/15p/7nG13K5PcnQTwth2F0Jq/d1vjmZcGT6AZWkrnOYav/+78blvY+7x6PBx3+uRoiWlv5dl8aIU0WU2OocyS55F0xtdlnPHrijy+WtEwVq5Tt6fbdlcsLEg5Fu5pLYboZZ02UAz0/1BkDRBB6/snReGBiT9jW/kgrQ1jaO0g6d8L1vRK8e7XZ+H2q3hUa9UhdV6OxI9K1T7P3RUaisaGZiRU7ziiVpZGKXToRYi9q3KDZiyRofJwnaOwBkjaf+Z7dxMPGqdEIieIPQXqKuV5PvbPfcdnlz0fsyeHEhQGdLDtaJjtDjP3efpFjq1+TcoN46694rFZTrG4ksVR6Ceunh9pdPLIMHIAs8jVWtYOwlIOfp3BB6IqE2LVE3Mv1QpJ8YOwqx3C2yLfEmnrSq0YNHB/Tp0S7XGdupt27tlKp11VTXzdYa0kM92jMUfhKhF64TDfNYkY74BEBVGoCpAq2+0WV+yMbPsn5uiCJAV+/r9da8pYldest3G0e6qEJnj+9KtN0g4PcPbHx/9FCPBof6VBprfiUUoFsKUZEOWHGW5KlPmqo0AFP4qj4H/XmYMdVg3otrq7rwdLMPurUaR1IiWKmLAJ1NxrVzGBOkU2ZMj3iUQrRr6IMf2l+t77sgTANIk+cxyGsV2ToGOslikI5gImF7V8JeTX6Zrc1PyD3ZldpnHU5tHZJhEw1TFNmOhmkKM6B7rcx0+R20eABIWqTh2e52eZl0GDpANyYSbvRBT/RrT3VVlerW69207Ev27eerqjze/GaoT6Uhn2s/V9sbuI0MB49SbgGa85b5Um0YcgvSaHAN0pKZg2ScwdnpNh6CtMSgBCBens9pYcduD+Oe8QWXCAK0JN1caF9emLu7EaidrWl+qr1k7cj0oEpHe3yt/exnTekgOFdlQ+pd95lY9s5kpgySSQdnp2NQlQaQklirz27HyuKkwyjbTkZ63VfWaqm0q8cqtW+zsXfiUK9GtKIFtdZ+do5I7eXwPKwp7YA+6Ozbtu7zrxXFxEKvx5Vy2hscQNeeqTQGybSDsxsP942BCkAUEg/PdryMx6aE6ShW4gigNrusI1NravRND9gsf1fX5QO19lbht5x6q1d1obX5WmmH3rvifS3qljgDdFw5DVsZN7GwEw33DV0HliQnk4RdWSOJgZyJhwBiFvnEwTCyMukwpQDtTY+efL63eXlFU6dWba9Vm7230Qoy/qfoAjSyx5gQ7fYuiSdcQ6pBOsqVNZLi8XcSpgH44Ss8pzHuuUkrSHc5f6QfoBsGjz6o8dY3c7f1+uyqZSOVuiob1WxJpR16Yczf8ZlImC/GtHO4Hb/FlBeZCVzfWEQ1aJvcruGXj/8LAxkAO77ebKc9BprU3tHlviR1bu/eztFUva/XN9acdlDq1/QVf0vpJRWgaedIjnEh2ul3tBCk22IJ0nkKznYI0wB8ylR47tRtzEu5VzvJc7rnEC1J1VVdePW25itbfzQysUsnzvb5auNIsgJNiE6OkSHa6fe0EKTbIgnSeQ/OdgjTALrIdHi2SqsqnYH2je7qqpXruilJQz0qDQVb1CzJlTgI0ckxNkQ7/S4pSy++ZAQK0kUMznYI0wA65CY8WyUdpHMRoKOR9FJ2hOjkGB2inX6fVLwXYTeel8AjPNvz+bgwIAH54ntycVbHwyTaOwjQG9JYC5oQnRzjQ7TT75SK92LsJpZVTLJ6ogiKMA0USmHCs1VcVWmD+p9NkNZKHITo5GQ6REvFe1F2E0mQzsNJIqwAFXsGKSA7ChmeO0VZlSZAb5LmUnaE6ORkIkQ7/V6ror1A7YQK0Hk8QUSBMA3kRqD14PM+NkZRlSZAb5L2WtCE6ORkJkQ7/W6ror1QJYJzogjUQCZFEp6Xy9LyY9K+vdHcKZMEDdIeble083LaAVoiRCcpUyHa6fdbFeEFG2nvc66D9JK0bPl2IODJb3lp8zEI04Dxoqs6L0lX35UuXZSGz0hvTDrf/upz0iWbhYW7efErab8B4dxPewfV5y1MCNBS+jmtSIIteJii9fV118Hx2d3f5fbFG8vEwdZAmJswvSRdf1c6f9H+x6NnpGcmpQEPx2mdODsNH5Ymz0knvYdp63OWwQyIR6DgLDmPf9dnpMunpcXg9ylTPvjBPRx7LCDk9RzsxpQAjWRlrhLtdj+s8vIiDhOcrY+Bp+NkPkgvSW8+5eGEV5LOfeISpL0cpySd+ETa1/w24NKBDK5AOIGDs+Q/PHerRF+fkf7hMXF/f7F5/G7jUUoCjml5Ofd61e3cako+4lwTj8yGaCm/QTqq4Bzo2FkO0hsfpZak0dekZ8baJ6blsvTZn6VrrY9aD0sfnLM/zvsPS9eal4fPSJOtyvWS9P4f3Y8RYh1uBjnAm1iCsySpLL10aPM/jZbar/luIdqr5Rnp5OnGZVNaOez4GM+yer4Nw8QALZmV0/Iu0yFayk+QjjM4B/pdWQzTV5+Tvj5gCb02rAHZ7uR1/WS7FWT0Q+nlMf/HaAmzsY0Y9ACr+IKzlSVEDx+WDh6T9t2w/FtEIXpjDHF5M28KJg/aMjVAS+bltDzLXE90p9YTw2mANblHOsngbHdb19//0sPZC9KDr0lv2IReq2fOSNeaFaBbNyR1BOB/tHqgS41Ktp2XP5SuNU+ql96V9jucBH1MwrFDHzWKLFRoloKPX8OHpcljlonIN8Ldj07LM5Y34ceiPXbUPI5bJp9n40D/M1oyH6Jb3CYcmvQCTys4Ox2va5CWshOm93UJ0JI08ET78vffSLLepmxp4zjg0qM4Jo2qed1/KfN1ewAAIABJREFUNVYA6dbPGGGglhiokT+hQ3NLqPFqrPsb8bA+a76J1+FctHG0tM4lppxr40KAhlVuQrRkdpAOGp7jvs9dg7SUzap0ENf/t335yd+5X3d3SVKl8eUlRFu1HssQ7R5UqZEHZgTnBGWhCh2yDS3tc22cCNDolKsQLXUP0lJy75RNqjp7+V25qko7Wf6mffkXT2z+We1f7cuDXSpEg79UI0RLqi0F24AhZHW6hSo1siKy0CxlcywyuQrts/fZ7XyRt6q0yf3PSFfuQrSU7lrSWQnOTr/fU1VayuYJTLKcxCT92ulj21L3yvLAcPuyXW+1X52PZ4ShWmKQR/IiDcxSdsecFlOr0AHXfvZyvshDVZoADTe5DNFSskE6y8G5k6eqtJTNFo/rJzcvXbev4+e3Auw0FpeIqtQtVKsRt8hDs5S9McaNiVXokCtveDlfZDlIE6DRTW5DtBRvkM5TcLaTu6q0dek6lRrL4EVlywTFiEVYpW6hWo0wYgnMUjbGkiCsVejR36d6VyRFvvNgt/NFFts7CNDwItchWvK2BJ7k7cWd9+DcyVdVWjL3BLixCYu0sdOgabuD+RFxlbrF6TXCyaK4YgvLdkwdP6LwzyvNCy5LZyYhxm2781KVJjzDj9yH6JagVemiBWc7mQ3Ty2Vp5pBl696YttftnKCYJLvHOsJgLVG1LopEAnMEK9Nkz5L0dWvHQ7elM2MUY3i2O0ZWq9IEaPhVmBAt+QvShOetPLV4SGaE6U3tG5JGz0gvR9jCYbIY2j86ub2OONGYK9HKsuRvDMjiPAsvrr/bfiPfbenMOCQYoK3HytqkQwI0gihUiJa8BekgTBoM4uTrTUZaYXpL+8ZfvC1B52ft5+XF9uXdjwW+q4lIoFpt1S2ocTKKT+Ih2crP6/yDH4pTjbbugvqrBCcUphCe7Y5renuHl3MZYxacFC5ES937pL1K+8WfJt9hOqkgbQ3Qw4elyXPePz71s/aznzWlTZRAtdqJ19cdJ662VMOxkzhe07mrRnvdBTVCKYdnu99jansH1WeEVcgQ3dKtKm2nyMHZjlH90sszlgB9RnrDZ/uGn7Wfb1kq3VmepNiScLXai6DB0fQTn5GB2E1cr9kiVKP97IIalmHhufN3mtTeQfUZUSl0iJa8B2nCszsj+qWt67D6DdCSNPA7afh0o3/x2v9KLzvNok+hupQ0pxNyBiaGZS6kmsKUCnCeqtFJfGLl47WY5nnMlPYOAjSiVPgQLXlr7zChd8t06fZLlyNYh3Wv9GRJWqxIuii9/3v7IH31z+3LBwsyWbGT29/N4IBdeKaF01xXoy2rcujw1s2dwspIeO6UZnsH7RuIGiHawuukQ5MGJBMFCtNSuBP88jeWb76Rrnu83cDY5kry/tekS4cal68dknZ/KO1vBekl6eofN7eMRH1iNEG3KnQ33a6X29BkANNCclC5qEbfaK/KMTzsek3PfL52TD1XJV2VpvqMuBCiO1CVjo7v5QLDVKetq2VcO92uSnfz4lcdW/COSefOSCebrSGXDkmXbG43HLBlJKuiDDRej0XYbst8oHSR12q09Y192LXkcxKeOyVRlab6jDhtW/f5DCrSxgv0SkfL9/KBfoJD57rQXm0J0U1bNmqxGP3QpV8648JWoU1gciCL+3FcLkvLj3lb0nHLbZfalwcSXnEmD8+7OOQ0PHfycm7w+38rcvW5SDktbYToLrxOUsrq4JWGWMN05Jak6zcaFwceSz5cJIkg44/d45XaY7UkXX1XunTR58o0S9L7f5SuVbb+aPSM9MxkchNnjXo8U1aQ8Nyp27nBy//T6/mlaLklz//fNBGiPaIqHb1shekCSCNEZ7VyKpkT+q7PSJdPW/pvPYbo5Zl225KjknTuk3TXNy7S676g4dkqTFW6yNVnq6LmtDQQon0iTEcv0C6RRTqxJiHxABOwcrpclmb+3FxBpUPSbTZph+jO8Nzi6fFckt58qn3bTY+dzQTapPr/035M0xCg/agI5xg/VWmqz5sVPacliYmFPnlZV5qJh/4EGQwjW9UDyXMKf11v16Xv/doh6dph6YNzoe6e+crSS4c2/9Noyb4lw8n1d9uP/5Z5AXul/Z9Iau7+uXhauj6Z3ko0uVipwwbh2ZXXSYdeECARl5+lfQeyaH19veuL8tnd3wWrsBbcp7ce8X+ieOlhsyeTmS6pKvT1GenNh6XzAQL08owlQJekE1817t8HP0jnPmyESEnSRenNmQjvtOGGDzcei5df83e7f7Qey8P2E2ulxnKPG9cvB7p7vuUxLFu1xiqfazwHGhdbqquqlOvBbpuysG8avJyrgTCoRIfgtSotFauCEAXfy+NJVKeDSCRAh62cLkkzlt7dE59srooOjDVbER5uLG2YduU0CcOHpcljll7wGwGP47Z+8WPSsPy/4YlDlqvRAd/gN8bAVV3Y/Z3mJUm9mvxyQAeHvB6hrsrsT/poakULpR16b2y7BgPdk3QFOheI6jOSQYgOycu60hJhOqigAyiB2lDDh6WDx6R9NxrtF14s/9/m3l2ncPzyh+1jXp6R9uV1He8x6Y2Qvd+7S5Iq0qJbQrZsFrL7sXC/z4+8rBsdKjw31GbvNQO0P7XyfX389l3N++jwyQvCM5JEiI6Il6q0RL90o7Jy23dlJVDfdEvkW4znRJKTCcNUTv95pX35127hcUwaVbMabUL51GC/OtCcOHhRunrMvqVjY3v7kvQrA5Z2zEI1OoLg3Laqj6fWfB0nr+GZiYMwFSE6QlSluwtaWbF6b7pXR3yeXCRRnU5NBJVTSVKp+1JrrQqr/iUtK7k1jrNmYFJ68UojSF96SpLL9vYv/iX5xzFL1ehIg3Nb5dRtH2OltTjRMDLRK82taSHQvTMD4RmmI0THgDDtxH9lpfsxGtXsmadp9/Alk2vyVnwEYz/XLaj9n0g62Vhm0Gl7e6cdPdNiSjU6RMD3NN5X7+ujucbFkVKvFio+xs1Svyb/9IAOjtV1Ye52JkM04RlZQYiOEWF6M3+VFX/HiKTdQzLjBB23TAboptqS941Z/Fy3qFxnmpXcfhg/06rRcQfnDXVdfvVuI/xO7NKJ4Xs64qE949FSv6bfeUClodZpPXsrchCekTWE6AT46ZeWchqmw1RWfB6DQJ0zG/27kr7+P2m/04TBcvt66GJJev+pRv+4JKkkjR6Qfv2E9I//la5dlNRs9fg6wc1WvEiyGp1YcG6rzf6omYok9Wv6bJ80e8/Drfp08EpfoN9nAtZ8RlYRohPitSot5TFMB6usRHGMwKt7SFtPoHkI1VmsQg/8Thpuri29eFp6/wmbnQmXpDc9rvaBRs9zK0C/aO2HlrRvTHr5nHTVstnK1d+l09aRdDU6gt8Vatyu3tf5ZrvayPQDKkmqhb5H5iI8I+sI0QkrYpgOVlmJ9hihqtMtVKlTsleaPCOdbK4Vfe2QdK1VOZX0jyvtNaeHS/ZbgqNteaZdsR/tCNBW+z+RbjXX3r70R+lXn5jTYx5lNTrt4LzBUigo7dCJo/k9PROekRf5fZUarjBhOorKSsTVmcIG6ixWoVsGJqVzagdpVRrB+ZrlOqMfSr/+X+l8MyAO0g9ty/OSgZKeOSNdOy2pIv1zKT/VaGOCc1vlVK1ZKOjV5DvZ3BilG8Iz8oYQnbJ8h+koKivxVmcKE6izHKBbBialD34nXX1X+vpfjYrzcEnSL5sbuOzdvLaxKVVT09xqVeo9PEYDT1hud0OSQW9M/FSjIwrhsY295Tuaas33mH7Ix66E2UB4Rl4Rog2RxzAdRWUlyepM5+MZSR+1lK2gary90v5z0n6HH28ExF8Sop1srKXtwfI3sd4Vz/xWo00PzVbV+3p9YqVxeWKX3spRGwfhGXmXn1drTnhdyUMyPExHUVlJuToTSZVaSn+CYh6q0J4sSd83Lw4Pp3pPssHDWtrLlp0fk9z626tWNTrCdo9kx9NVXXi6+Ulba75HDvgdLwnQyCpCtIH8VKUlA8N0FJUVw6ozkQVqKf1QnVfL/9dYwUOSnvxdqnfFaPtfa2yuIknnT0ofnHO4Ylk6f7F52YCtv53CsoH9zd7ULeve92ryy51pr8wdGuEZRUOINph1gMlOm0cUlRWzqzORBmop3lBdmCq0pM9akw4Pm7XLnnHGpBdLzRU6Lkpvqt1T3nJ9Rrp8uv19Glt/W8WwzF3aRYfKqVr7k7aJfu2prqpS3Xq9m5YPA779fFWVx5vfDPWpZEjvNOEZRUWIzoggPdNS0ieKKCor2arORNJH3SnuSnUeA/TV5yzrHh9L9a5kwv5PpFvPNVY4WbxoqTjbGP0w+TclOQzNnW5a9uNemLu7EaidrWl+qr1j68j0oEopfkJHcAYI0ZljcqtHFJUV/TXb1ZlEQnVLtzBs0pbJYV2fkWpPSL8a21wRXS5Ln/3Zsk70GarQXr38ifTrZsV50ebnwyXp4F/i3To9xueoaaF5i5FejXi5XmVNG3m71L5NWs9ywjPQtm3d5zPcLrzxIkmP1zDdEueJ5fKB75oraQQzMr1L/+9vt0MeYzD1/mk3kYRqN61gbXwbR1l6qdmXO+xhW+nrJ92rpV6PE6VcrcSyJF2/0bz8WDzBOeY3dcaH5oBqs8s6MrWmxidzAz4mWK/qwu5m5bq0Q+9dCbe6EeE5O8hpyTE3bcCToJVpKYaTThSVlYxWZ7yKpVJtlafq8yZuq22UpBMxV0xzb290j19Kz8Fnd3+X2yCdJsIz4IwQnRN+w7QUfavHwbMDOujhepsqK+90Vlb6IjhGdsQeqjsZszHMmL/fv29S+mBSWl6Sli0V04G9rAedpoQCs90YFftrpcCCPLaEZxQRITpn/K7oIaU5ERGdEg0L3QKQia0JA3sbX0hGSlXloOMQ1ehwCM+AP4ToHDOhOo3wUqvCuQUoEwM2gkm5BSjoWPPprUeoRkeA4AwER4gugDBhWiJQmyj1j7ezWMUuKkP65JMaR/JWjR48OqBPjwa5ZZ+O33pEx21+EnSsIDwDmxGiCyRImJaoTiOAIMGN4N2dIYG4m6TGCqrR/hCegWixxF3B+Q3ULQRqszidHN3+TrkMH0kG8aBL3GUkCHuV9lgQ5LlfJATn4iGnJYcQjQ0E6uyyO1GG+bvkMmAjkCy8vqN+/mcdwbnYyGnJIURji6BhWir2iSstaVTiCNn5Ee55UlfNsqPo4FA6HYJUo8O9JjmH5ws5LTmEaLiiOm02U8MDIdsc3p4Llt3tuu6MV1et/JPOT6y0NzyyGJnYoT+8sl2lhNduL2o1mqozOpHTksPEQrgKOxmxpQgnM7QF+XsTvLuL63VUm73XDNDd1HX5QE0zFedrLMzd1dTcis8tquORt5U6Wqg6A2YgRMOTIJu4WLFkXvRMrUIHFcX9Nj2Im/m3WdXHU2uerlmb/bEZoHs1MvGgTrzSp8FWUK6u6vJf72lmbk3SmmaevqM9t3aqFNO97pTnlTrC/r8IzkA8CNHwjUBtrjw+nrVq3fJdTzu02Uj6/5+HFoLKqdseq9BNpR2afsemXWOoTwfP9mmPvtPUnCSt6KPZB1Q6mu5pJqvVaIIzYD5CNEIhUKcjmxU37323tfJ9ffz2Xc3btg30anz6IR1POZzlQvW+PpprXBwp9Wqh0qUi/fiDeu9KnwZdrlJ6ZYdG5u5qQdLCYl1JnmayXo0mOAPZ8rO07wDyY319PdQg/uzu7za+4CyrbRye+26r93V+wilAS9Ka5qdqevbAfdWiu3sFVNflVxthVxO7dOL57rcYHHMP0JKkoR7tbV1eqBvxNzJ5TAk77rXGXQI0kDxKOYhc52AetkItmR8Q0Y33vtsGm57bzlUhKnd1frZPb1GRDqTd39yv6bN90uy9tO9SJEyvRkdx3wjMgBk4+yB2YVs+JNo+WrJahfbXd9unE19ut+l97tHg2E69NSc9O7EiSVqY+kmVo8lNXsuN6n2db76pGZl+QCUpuopxta6l1uWRnu6V64Sk2RtNcAbyiRCNREUdqCXzA2TcjP//++27HeoSvMYe0GRppVlF/a9uVpX4msTZZmnjKO3QiYgr+ZW/3t1YP3p8vC/SY3uVdjU6qt9NcAbMRohGaqII1FJxQrXJH1E76+i7Hb6nIy5rDCN+lVO1jWXqJt/ZHm2luHynuTKHpNIOvTAW5cHDi6saHeVrk+AMZAchGkaIoo+6JY+hOqttHPH33f5ce6hCe2cJuSPTD0W6GUqtfEfnm202sQR0n+KuRhOcARCiYaSoqtRSPkN1JsTVd1td1RetavbE/9AP7VX1vl5vhdyJXZFOyKzNLuvIxsTRXo3Ppb9boZOg1WhCM4BOhGgYL8oqtZS9UJ3NKnRMfbfVVV1oHbdV3YYHq7rwdAyPW3VVF169bVmO0H3976QFrUbHUcEmOAP5Q4hG5kRZpZayF6ol8+9jFH23tfKqbkqS6ro5v6YvFla00AprpX5Nv8OqHN7ULauj9Gryy2get1b7RmsS4cjEDp04m24Lh1ed1WhCM4AgCNHItKir1JJZWzlncjJhJH23dX399u1mELco9Wr8+Qf1wlEPm35AUuMNzcbfY6Jfe6qrqlS3Xu/mYvvyt5+vqvJ485uhvi2rn2xt33hIx8fMPJ04VaOjfm0RmoHiMXPUAwKKI1RL6QTrTLZxRNl3O9Krkdblylpzg5U1zVdua36qV+PThGkvbi60Ly/M3W2vnuFoTfNT7XW9R6YHVbL8HTcF6NYnAoa0b3SK800ooRkAIRq5FleolsyqWJshyr7bHh08O6CDHf9aq67q41dva77SDHqLu/QpfdHurG9G3LTeqEhSqX2bvdbrWCaLqrRD710xp30j7k9tCM0AOhGiUShxhmopumCdvSp0PH23nQaH+nT8yqAePdDsuZ67rQvjj+i4YesRm8TuzYiddoW5V5Pv2E8ObG+k0q/plAJ0Ui1OhGYA3RCiUWh2J8okgrXkPxCbG6Dj6bt11qOD7+zQF82q9/z8qo6PUY2O36r+3moFSWhpQQIzAJMRooEOcVerW5yq1lmcTBh1321XQz3aKzWqogt11SRj2gpyq1rXUvPiiOqqlFe93c7jG6Qkn/eEZgBRIEQDXSRRrW7JYoCWFG3fLcxUbf/tvL1RarC+QUrj+U1gBhAXQjQQgNOJOa5wLbkHkLRbPaLsu/XEUhXVSA9VaIMtTNX07FT8v4ewDCBphGggQklWra26VfjSDtne1VUpSyXXNYctuyFKGh+nHzoKg0cH9OlRlyuM7dSnt3Ya8WkJgRmACQjRQMzSCtZW2QnZdf194ramSv2a/NMDOtgRpmvl+/r47bvtbaYndrEyR8RMCMlWBGYApiJEAykwIVhbeQ1OiYXtyopmJlY043ad0g69xxrRnpkWjjsRlgFkDSEaMMT6+vqmIG0NFWkGbCu/Qcx/6O7TC9P9Wppa0YLTVUq9Gv+TudtMJ8X0UOyEsAwgL7at+xzR7E7mDIpAukwJ2XGa/nJQe4bMmkQYZHOdrIZfrzgfAOkipyWHEA0UQBFCNpLBeA+YjZyWHF+fh/KHAbKp2+uUkI0WxnQA8KbYTYUAJHkPToTt7CIcA0C0CNEAPAsSxAje0SMQA0D6CNEAYhVl4MtyICf4AkC+EKIBZAZBFABgip+lfQcAAACArCFEAwAAAD4RogEAAACfCNEAAACAT4RoAAAAwCdCNAAAAOATIRoAAADwiRANAAAA+ESIBgAAAHwiRAMAAAA+EaIBAAAAnwjRAAAAgE+EaAAAAMAnQjQAAADgEyEaAAAA8IkQDQAAAPhEiAYAAAB8IkQDAAAAPhGiAQAAAJ8I0QAAAIBPhGgAAADAJ0I0AAAA4BMhGgAAAPCJEA0AAAD4RIgGAAAAfCJEAwAAAD4RogEAAACfCNEAAACAT4RoAAAAwCdCNAAAAOATIRoAAADwiRANAAAA+ESIBgAAAHwiRAMAAAA+EaIBAAAAnwjRAAAAgE+EaAAAAMAnQjQAAADgEyEaAAAA8IkQDQAAAPhEiAYAAAB8IkQDAAAAPhGiAQAAAJ8I0QAAAIBPhGgAAADAJ0I0AAAA4BMhGgAAAPCJEA0AAAD4RIgGAAAAfCJEAwAAAD4RogEAAACfCNEAAAA5sb6+vuXftm3blsI9yT9CNAAAAOATIRoAAADwiRANAAAA+ESIBgAAAHwiRAMAAAA+EaIBAAAAnwjRAAAAgE+EaAAAAMAnQjQAAADgEyEaAAAA8IkQDQAAAPhEiAYAAAB8IkQDAAAAPhGiAQAAAJ8I0QAAAIBPhGgAAADAJ0I0AAAA4BMhGgAAAPCJEA0AAAD4RIgGAAAAfCJEAwAAAD4RogEAAACfCNEAAACAT4RoAAAAwCdCNAAAAOATIRoAAADwiRANAAAA+ESIBgAAAHwiRAMAAAA+EaIBAAAAnwjRAAD8//buNzSuKu8D+LcPcQimtKRS4rSrNGpgfFMe8CIuhYUGWWf907zpG+tUENpAcUtFW9/ZkPqufxZLFSEpCDbVN33TanfTB5lCoSgyC0vfbCBuJ6jpGIINlmQZ4kCfFzN35s7k/r/n3HvOvd8PiGkzmUyTmXO+9ze/cw4RUUAM0UREREREATFEExEREREFxBBNRERERBRQX9IPgIjIr02bNiX9EEJ5+PBh0g+BiIgEY4gmIml0Db2iifo5MIwTEamDIZqIfGEgTl6Y3wGDNxGRHAzRRBnHcJxuQX6/DNxERP4xRBOlHEMy+eX2XGHAJiLqxhBNlAJZCMrX7z0h/D5f2fFTYt9HN17PMYZsIsoahmgiDegakmUEUh2J/DmoGsgZsokoaxiiiRShelBmIFZDmN+DCsHb6fnNcE1EumKIJkqASoGZ4Tj9/P6OkwjbDNdEpCuGaCKJVAnLDMrkh9vzJO6AzXBNRKrzHaLtBjQOZkQdSQbmpEJyrdqw/KkP+WG17o/E8XqOxRWyORcRkSpYiSYKKImwrFIluVZexZWPVjBbsftsDsXJx3D0cIChpVrH1U9/w9TMuu2nizN5HB3lUAU0UKt2/pQfVutnkmTIZtWaiJKg1ihMpJi4A7NKYdlWdRVnSyuYc7zBOmYnapj9ahAXr21G3uPuauX7OFtac7k/YOE/AEbDPNg0aKBWfuD4MyqUBvH6kc0wXCr2teklHJqwv0DpYvj7nYXl9NyOO1wzWBORKAzRRBZxhWblw7KrHAqlrTh+pN/SbtET9iorODvdj3NuFenyfRwqrbXvszi5FfsP93dCXLWByjcP8K2kfwXQ/D2osHOFvQau7qthyrbi3zQ3s4KJmTWM3x7CmKatL3GH697XOEM1EYW16aHPEYRX9JRGcYRmvQNzj2oDNbde5fJ9vNIOxgOYvLcNhu39rOK9PWZFO5doCOwNa6r8vjoVZJuLlg0tMM4/68r7P2FiBgByKJYecf6GI492X8QoKK4LHs5tpDtmtniwEk2ZEWdrhipBTLjhPveQNboF48Zaq3r6OxarsG01qHzaaQkpzqhVRX1lx0/q/P6MQUyet2nXGO7H2Ol+7IQZkNfw5fQWGG6Vf2MA+0/La9eIQ1xVa1aricgPhmhKLZmh2TqZq9sOoKjqKr6caX1c2o6jme139vD0Vly85l4ZNo4MojDTvCCZm28gq0O6+XpkCwgRxSmbIy6lkqzQHPaEOGWqmYl5BDttKsy1b9Y6bRxH+mN+TPrIj/r42Qz3YRfQ/HnONVADekJ3A4tmyb/g8S5CSsm44GWoJiKAIZo0JiM0hwm+TovTMhmkq3XcMhfClR616dFt4PuvzD5e+5BNFIafgGz3ehQRrBmqibKJIZq0Ijo4Zy7kylSt48Ixs9d5AJOn7SqpDfy4IWQ3UCvXcWV2DQtzAPAIdr32KPa/2M/DVrxUG1gwP7atNHd+3oWR7A33fl7fvbcRHaoZqInSK3ujKmlFl9CctWp0rVzHIgCggcXZddyaW8OcGY6NAUyed9qVwxL6AKC6igvHeg9uWcdcZQ2zEyEObsmYrgWaRY/2j/kGKmXzRMg+7BxOz4mQInuhRYdqVqmJ0ouzEylHZHCOM8CqveewSA18/9Hyxv2LjRyKr2113yatut4OfYWRBi7sWcEsABgDKBaaf7/QDuTNg1sWkHffbzqryvdbO3MAMAax326BpuWiZW5muXP7ttb2eafV3touDFGvfZmhmoGaSG/cJ5oSp2totuM0wSb9uMRq4Or7v+KWmYYr6z2n6dkcnGLq2ke6eVu7PaJrXQexuOw3LYDd70z131f3SY8u+2x37cftJtm9uqNI+jUn8sKZcyqJwswWD4ZoSoSo4Kxi2NExlIlQq9Zx5dhypzWjtB3Xe/uie0J0ceYJxy3uOoeEAIVJedVo3X5f3cd451CcGXLdJrBWxYa2jVq1gcVvHuDLCetx4nIvVmRR7fcnKlRzfqUomNni8T9JPwDKjk2bNrX/C+v6vSe6/tNFFto88sP9OHotj3Ezhc0s40LZ5QucWhDMTx8ZRKvDo7UHcsZV67iw76euAD1+2z1AAxsDdPPv+mAc3oZzt7ej2P7bNXw5rdfPWcXXlagxSsR4SURyMUSTVKKDsw7iOlVNTX0YO98Jv7Oz9e5PD+fan/Pct7i1BzKA9h7IWVUr38d7ezpV/kJpEBfvCWi/GO7H0ZmB9h/TcLGi2jjBQE2UXlytQ8KJGOhVmwgpALcDQKyfI182tm88hqOjAofu0UdRxFpzgaftgS1q0vGiVMQiRS5MJFIHQzQJETU4py00Z23LO//68KQBoALvwOa5B3L6dQVoc+tA4Yv/LL+TyjoWoUeItqPbayvqaYoM1ETJYoim0Bic3WVny7seruG3D8+/lsNUZR2orOH76mbHloTO8eDZPCgE1VWcbQfoQVy8tllSuLUcgGPksFPK9xArja8rBmoi/bAnmgKJ2punW3+zDPoGAOthHc63uXrM/QCQ/IsDrb4OdyO8AAAgAElEQVTodUwdW3Xoda7jSruFYQCvZ3Cf6M5BKgOYlBagAZT/22zlALSu+KdpTIk6TrKHmigeDNHkC4NzOOn6NzfwbamGV/bdx1WbMF0rr+LCvlrnEJbSdvudI4Y34/VS6+PKCg7tW0Wlavl8tY4L+5bbwa4wuUW7bdeiq+Nb82CU9vHocr7PhfaWgzmMH/E49VAB+l6EhiMqUBOReNkr75BvUXfUIGda90ZX1jBVWsOU222MQVzs3SPa+unTeYzPtQJ3ZQUTe1Zsb1cobc/maYWWlpgCGqiU6643bxvu7+qZrk0v4dBXj2D8nS0Y61mM2H1gC4DSVi0PWwGyM95EaflguweReBmcncgNg7N46emN7sf+yQEsdB3Q0cPIofiOn90j+jB2LY+d070Hfpgk7EKhE8vx6HMzKzbHddsrTOZh9F50+LjoKZS247jLRY8q0vE6EoOBmih5GZ2hqFeUVg0KR8dqdP7wNpw7vA1Ao3nqndmGMdyHncNB+2mbB34Yh7ehVq2372vncL/tASEUwtOPoIDeY9ktjAHbKrVOdHsNySAiUDNMEwXHY78zjME5Xk6TG3+eyVLt2Ggpqg3UEPWiJ1l8/QQXtnLPuV1/zGzx0Lf8QKGFCc9OE1Wtal1g1scKoov0tHWQdob7kE/h65MB2l3YCjWr00T+sBKdESKrzrXyKq58tNI+grhbDsXJx3DUYzFY9ylsLqTujxs/VtPkUvUihb/faPi6EYfV6WxgZosHK9EpJ7LqDKB5AERpxeXY5nXMTtQw+1W6wq8orEY7S/PPRcS/jYGxG38e4bA6TSQOQ3RKCQ/PXXIolLbi+BHrArAGauUHnS2zKis4O93vuD3Z4vx6+76KpUecv1VGTqrTcZGhmzQH4qQE/Zmm5fnE55I85nOEYZooHLZzpIjc4NxSbaDm1ltZvo9X2oc3DGDy3jbbgyIq7//U3LYrZe0afum+mI3BRn+6PN90f62I00DNcihRfjhagcFpPUuY1zazgHqY2eKRjTJfysUSnk1eK/pHt2DcWGudWvc7FqvoOvyBnKlUjWZITj+v37EKz0U+D3ve4etRKA3i9SOb/Y+x1Tqufvobpmbs16MUZ/KsThMFwBCtsaDhWYVJsamBRXNGKOi1zZYoTr3RcQXpVIaTz38J/7VvPi72/vzcv+JUDdnqjGOyNXB1X+tUTwfNg3jWMH57yPO0yQ0nVNpY+A+A0ebHYXqnGaYpaxiiNaRPeH4EO1mFTpRWYVlkaFWNiH+bYkFc9o4ZWj13JahN/9oK0DZrULoqyuuY2nMfOx1a5wAA5fs41G6zy6E4uRX7D/d3ChjVBirfPMC3Dl8etDrNME1ZwRCtES3Cc7WOW2blpPSow6DewI+t2xQysnDQjuhqtFKhI82BOClBf6YJhW6ZPczZqUK3GIOYPG/TrjHcj7HT/diJ1toSrOHL6S0bj3wHgOoq3rMEaNuq9XDr9FCPh8MwTdQtuwlGI0HCc6KTTLWOC8fM7e8GMHm63/tr5huolM0FLq1T1DJUvQ675V3igZkhWX1ev6MYQ3bQqnXiz28VPL0VF6/1u7a7GUcGUZhpjrlz8w3YTemVTztbkhZnvNs+/Aja6sEwTWnFEK0wlcNzrVzHIgCggcXZddyaW8OcWYE2BjB53qWqUW1gofXh3Mxyq5Ji1Xr78rT7BJJmZjU6sTDBkJx+CoTsIFXrrFWh86M+ihDDfdgFNEPyXAM1oHvMrK7iS3N8LW3H0VHBDxLBqtMM05Q2DNEKUjk8NzXw/UfLGxe8GDkUX+vptQtlHXMzyzg04/DWY8q4tXVIw5BMXhIK2axCi1P7xlxImMP4ER+hPAKGacoihmiFqB+eLQo5FMyPK+utA1bWMVtZxuyEzcIVq+HNOH5784a2jVq1gcVvHuDLCXPg97FgRnOxBAYGZpLB7nklsXptvlYSH/tUYnlXb+NORw18/5W5lV18i7wZpilLeNiKArQKzy5q1TquHFvGbHth4XZc99MX3atax4U9y5ht/bEwmXc8+VA3rC4rSvYWd1knMVyrPCbK1j60CkBx5omedo06LuxojaPtsbiBWrmOK7NrWJgDgEew67VHsf/FfmlrUYKMecwU4jCzxYMhOkFpCc/duvc23Tiw+2Q9+TBsGE8YA7NGGKLjx2AdjXWMtDv5tbqK9/a0FhWWtuP6kQYuHFvpFDm65FCcfAxHJRYrGKbjxcwWj3SU9zSTzvBs6sPY+UHcag3es7N1HPWzQKbX6KMoYq1ZRbFbMKMghuaWpTKw9BSwe1fAL1wAlix/HAr69RkR+uermN7ntMBQ3fta1G8cdWcenNKUw/j5zRvHx+p6e1eOwkgDF/asNMdTYwDFVi/eQntB+DpmJ2pYgLx3/djmQWnEEB2jdIdnC68V47704UkDQAVAZR2Loe5DPuHB+fNflDtUw78F4MYnwOVLwMgpYPe4v6+58wlw9pL9p/eeAl4eB4aEPlBNhfn5asLpOS/o9WB9nWo9tgKoTS/h0ITZ65zztW3d3MQK5mz3iN6GmuUglrmJB6j42C86CoZpShOG6Jj4DdC6D/DidA5kgZHDzkQfS4eU0OzHm4+rXY2+MwVcPQnMB/miBeDDF9y/5uZJ4OY14MzX2Q7SoX6+KSG4Yq1tlbpaxwXrmhOng1McOIXt/Og2TJbWvA9tEYxhmtKAIVqyTIZn1xXjPpX/215YGPo+BBEanP0EYZ2q0VHC3Y2/tr7OAPa+C7w82gnKS2Xg738DblYAVIATJ4DPzwh72NrIQnh2q0L7+XuBoVrVcdhs32i3Z5QGcfy0TQuHE2MQ+13Wpvg5tEWWoGGaQZpUwhAtSTrDcwOVMmCMuj1tGrh6zHJCVjHMgsA6Llj7/STvb2pHWHAWWT1WqhpdBt480P1Xe41W6A1g5BQwbtOuMTQKvDUK4HHgJgBcAm68DbykeR+wb4J+vlkgMFSrGKg3tm88hqOuY3DLcA4FtIK3VyFCSAteNH7DNKvSpBKGaMHSGZ5NDXxbWsaEMYDxd7ZgrGcgr5VXceWjla4t7ux25qhNL+HQV4843Ed3xQWlrbEdtiIkOIsKuTpVo0cOAmNvA7vvAjcPeN/elH8X+MBj65aXTzVbOgDg3l0AWQnRFmF/vjoIWoX2Q1CoVqHtoytAmyfB+h0PrcFYIwzTpBOGaIHSHaAtKmuYKq1hyu02xiAuum1L5+M+CqXtOC5xazulQrNfKlWjRw4C429bdtG4G+zrd/vY+3Domc7HP/8AQMK5xaqK+vOlJgmhOpYxvLqKs+0AbbOFnSfL4myv6rKIFjzBnE5y7cUWD0oSQ7QAmQnP6Mf+yQEsTKw5VzeMHIrveLzd+PQjKGDd5T7sK90iaBWcnarRSgTpUe8qMkWQgZ+vjCq0H9b7VzhQVz412+IGMBk4QANAH55/LYepyjpQWcP31c2O7+p1jgcHCiPqxAJWpUl16rxaNJSd8NyRP7wN5w5vA9BoHtNdbX1iuA87h/1VMPKj23Du3jag2kAN4e4jqMjhOfHQmlFLP3Q+/sMzzrcjCkPZQF3Ht62TCFF6NPSWc/kXB1CYWMcc1jF1bBXP24bxOq60e64H8LqCp8MyTJOq1Hu1aMJPgE5TeN6oD/nhvmhHxQ73IY+I9+EiFcFZ6Wp0DP5+svPxcymvzGZJUlVoNwIDdeSx39JeUUADlXLd39cN93f3TA9vxuulleb2dZUVHNoHTJ7f3LmNuW2e+b0mt0jdIzqqIGGaQZriwBAdUBarzzqJFJxVDaU6LTIU6c6J1s4caB0ukuijoSyJ2EcduTptOW1wbqYVgn0oTOY37PFsnM5jfK6GqQqAygom9qzYf21pu7TTCkXz0y/NqjTFQY9XjCJYfVZX6PCsanD2I83V6DsnLKcYGs1t8CgdVKxCe4lQpU5+27w+jF3LY+f0A3xpu54lwLZ5CmFVmlSg16smIQzPaspUcM5SNfrGq8Dl9nGVwPGMn1ZIahEQqD3ni9FtuH5vW9BH5qIPxuFtMA5vQ61ab69D2TncL62dLi5+wjSr0iQLQ7QHBmi1ZCo4+5GmavRSGZg6YDmdz4jvuO8sXaQkSccqtJuQgTrJ6nQ+BcHZjt8WDwZpEokh2gHDs1oYnpHuRYZd7RsA9p4C3kq4hSMNP1eKj/lckVWdJk+sSlPcGKJtMECrgcE5Iza0b3wM7M7gyYRpl7YqtBMNq9Npw6o0xYUh2oLhWQ2hwnPaJmInaatGWwP0yEFg/Az7n7NEx+dsEBEDNeeb8FiVpjgwRLcwQCeP4dmntPTvLk1ZAvQp4APuwJFaaXi+RhWi3YNhOjq/YZpBmsJgiIZ3gOYAJg+Ds0C6VaPbB6kcZIDOIp2eqyKFqE4zTEfn1eLBqjSFkekQzepzchieI9K+Gl3uHKSy9y+JPhKSTOvnqWQBq9Psm46GvdIkWmZDNKvPyQgcnqME56UysPRUtEVqIu4jTrpUo5d+sPzhB+COz68bGmXPdBro8ByNE6vTsfA7/zBIk1+ZDNEM0PGLNTxjAbjxCXD5Uuu46DCtAiLuQzKdq9FL852Pb57sVKW9vPEd8JImFzSk7/MzSSGr05y3nIV555NBmvzIVIhm+0b84g3PAO5MAVdPWg7sSOg+kqRLNZqyic9NfximIwm9RaoF+6TJS2ZCtJ8ATeIwPMdEqS3vRv1/z91ngM/PyH04qRPg56sCVqHFYJgOJOjcw907KIpMhOggAZoLN6KJPTyjDLx5oPuv9hrAzYr9zaXdBxF50ukiQDUM067ChmfrnxmkKahUh+io1WcG6mB8D2KyJtKRg8DY28Duu8DNA963l3UfcVOqGk2ElFehF4Alyx+HYu7RD7gIMe1hOmp47v0ct8GjIFIbokW3b6R9IIpCifA8/rZlMrubzH0kSedFhqKJ/DmIvK+sX9Bo/e9fAO58Apy9ZP/pvaeAl8fj3zkmQHX6lR0/pWr+Ehme7W7HqjT5semhz2eCXShV9UkUZPeNKIsP0jQghZF4eHZkac8IfRKeiPuImdNEqmN44QVBU5p+dzr+WwAAC8CHL/hYK2EAZ75OdgtGn68bnecuWeE5zPdSNQMBemU2naWuEh10+7oogTqr7R6Bfk7aTpwa0qEarfrjU43fn5fqrzPVH5+bG39tBWgD2Psu8LJlr/KlMvD3v7XWT1SAEyeSXTDrcwzQ8Z3VOMOz9T5YkSY3qQrRUfd/ZqB2x/CsqTh7oxmSk+Hn5x7HcyCtv/+RU8C4TbvG0Cjw1iiAx1t7nV8Cbryd7F7mAVs8ALXnrCTCs939OT0OBulsS02IdgvQYV5UIgK1ygNTUOq2blCXOBYZpjUopZ3b703m61b3MSH/LvDBqPttXj7VPDQIAO7dBaDAgUCa90sHmXfjeOxuVWkG6exKRYgWHaDd7iPICzsN1WmG5wzTMCyrPJEpvVe93e866Gtaw+eLL7s9AjQADD3T+fjnHwD4+Jq4+AzTqhR/VAvPvd+PQZqstA/RsgO0031mod3D17+R4Vk9YarRigWgNE5GYf9NiYVvEQsEOT6oI0CYjnuOSrplI+j3dgvSQDrHL7KndYiOO0A73X/aAjWrzyngtsAo4cDMCSYYPz+vWIO2YhdcSlj6ofPxH55xvp0KfITpuKrSOoVnKy44JJO2ITrJAO32/XQP1Kw+p5zkAMSJIxnKBW0gW+PE3092Pn5OoVYONz528pAVpnUNz1YM0gRoGqJVCtBu31+nBYkMzykRU5WQk4N+nH5n0sJ173MxrePHnROtnTnQ3MVjd6KPJpiYWzzSEJ6tGKRJqxAddQu7uOnSP80ArTFWlimi2MJ1GkP1nROWUwyN5jZ4OpLc4pG28GzFIJ1t2oRo3QK0lartHgzPGpIUmjnIUy/p4Vr3UH3jVeBypfUHAzie8GmFIvhs8fA7F6U5PFsxSGeXFiFa5wDdS5VA7fm9dZvQ0kxCcOaATmHZPXeEBGvr81zl8WepDEwdsBwDrsBx3yL5rEq7zUFZCc9WDNLZpEWIdqPziy+JQM3qswYEh2YO3CRb73MscqhWtUrd1b4BYO8p4C1NWzi8eFSl7do7VN7jOQ483TB7lA/RToNx2l6AcSxIZPVZYQKDMwdpSprwarUKVeoN7RsfA7sVOJlQpgC90n6lbe6241WVpvRQOkRnJUD3Er0gkdVnRQkIzgzMpAth1eokArU1QI8cBMbPpKd9ww8fvdJe0j5v93IK0qxGp4uyITqrAdpKVLuHJwbo+DA4EwHofh4rHaiXpiwB+hTwQUrbN7yEDNJZmrN7MUin36aHPn+TdoOcrCeByvtAq0DY20QMz/GIGJw52FLWRO6pFjm2ffZ4ax/og8DnZ8Tdr24CjmOcq5vc5muZY3ucmS3LlKtEM0B7i1KhbmOAlovBmSi0yFVqYRXqcucglb1/iXA/GuMx75G49UezIq0/pSrRDNDhRapOM1CLEWGy4UBK5E+kKnXQsW5pCjjROtJ77ynguWf8fd3QqP4904LCM+fuprgr0qxEx0OZEM0AHZ2QNg8G6uBCTjYc0IiiCR2o/Y5zvVva+fXGd8BLmu7cEXQ889ErzTm8Kc4gzRAdD+XaOXrxxeePsD5pFbaS0gGrzkSJM19LgcM0x7mNwoRn68cRDmfJCrZ2pI8SlWjuxBGN7/2fo7w9x4mmiVVnIqVJr06nTZTwHPC+OKc3Oc3Zst/d5zwkXuIhmgE6GtcAHWGwC3WfaRbi58UBiyhZoQJ1Vsa4IGNa0J+Jy31zbm+SHaQZouORaIhmH3Q0oQO0FavTzhiciVKDgbpFZnj2+X04vzfJDNIM0fFILEQzQEcjJED3YqBuYngmSq1MhmmRLRsCv2/W53qZCw0ZouOhXIjO+ovKDykBulcWA3XAfzMHJCK9BQ7Uuo1tSYXnAI8h63O+rCDNEB2PREI0A3R4sQToXmnvn2Z4Jsq01IVpFcKzFYO0KxltHQzR8Yg9RDNAh5dIgLZKW3Wa4ZmILLQP06qFZysGaVeigzRDdDxiDdHsgw4v8QDdS+dAHeCxc9AhyqZAgVqjMQ1Aco9X+SDdQK3a+VN+ON6jNEQGaYboeCgRopN/4ahNuQDdS5dAzfBMRAEpHaZ1Cc9WygXpBmrlBzhbWsOczWcLpUG8fmQzjOGNn6tNL+HQxHrg71iYzOPc4Y0BnSFaP7GFaAbocJQP0L1UDdQ+HxcHGSKyo1SY1jE8Wymz/V0DV/fVMFXxul0O47eHMNYTpEWHaEBckGaIjkcsIZptHOFoF6B7qbAgkeGZiATyHaYT2OlC+vcXzeHfE1cu6ITgHAqlrTh+pB95MyhX67j66W+YmjFD8gAm722DYf368iquzPoL0Qtza5irAE6B3EpEkGaIjkeiIZoB2pn2Adoqieo0wzMRSRRrmE5beLZKMEjXppdw6KsBTJ63b9cAgMr7P2FipvmxWwXZVXUV7+1ZwZzP+2CI1oevEK1ygK5VG5Y/9XWuIjWWqgDdK45AzQBNRDHxFabDjNu6t2z4lWBrR61cB0b7kXe7kSUAo7Qd10/3B/4+nSC+sZrtJGqQZoiORyIhOuoLo1ZexZWPVjBr28eUQ3HyMRwNc7UIAKjjwo5lzLbuy+ttF9FSHaB7iQ7UDM9ElAChVemshGcrZXqk7VgygTGIi9c2u4fuXgGr0FZRgjRDdDyk7t8S6nhVL9VVnC2t2K6ibVrH7EQNs1+FeLIDqE3/1grQ8ctUgAa6/01BJw7z9uZ9+Ph6DiBEJIM5tnjOeb3jlt3n/ErTnPD5L47//ld2/KRAkA6v8qmZVwbweujiHqnqf2Tdsdw2jhwKpe24ePsJXL9n/pfHxZkBFMybVFZwdrrhdic26rgSYqWtCJkL0L0+/6XzXxBvPu45+Tx8+JABmoik8z3WWMcsH2NYlzDjpA5c/k2u86Ns1QYWzI8LfYGr0F+2+6m3+GrjsHLKS1IKlBSKhpdF/Th+e7NN73Mf8qPbcG4GeKW0BgCYm3iAymF//UcAUHl/ObEqtKM0DpZeAlSXvTA8E1HcHj586L8q7VcW5gKXinRSOpVkoFgM1g/NKnT6SalES61CD3ssHhzdgvF2av4di1WX21pZrxiNXPjHF4LjVXYWBk03YavTYPWZiJIlbAxKa+XZicO/NZFqdPl+e2cOGIPYPxrgayNWoU2sRqtNWjtHL7V7mhq4eqyz+vb4a/F9ZwZonwJMJAzPRKSK0GE6a+HZSoEgXSvfx3utd7WBHMbPB1tjJbIKrXZ+yjbhIVqtq6NHsNPHzhq16V9bJxYNYDLE9jVhJdrnpSP2PhORpnyNTRHefcuKOObN2vQSDrWPAc+hOBNwly5LFRqlR0NXob2olbeyKZZKdKxXUdU6bplb3/l58lZXcba1mDDKWy5CcQDt5rHwhuGZiFIh6CLDNEtiHqzWcWHfT5ajvJvb3B4N0sYBoPZNJ4CPHxFTmGM1Wk1CQ3TiV0XVOi4c67yF4l1VtrRxGIM4HmPjv/Q2jqUycGfB+3a2X7vQ+S9pPqrPREQ68D1e6RakrXPGksD7jbGto1a+j/f2LLfPnyiUBnHxXphzIhr4/qtWCDcG8LzkcyYSz10ZJz01yrp6qpXrWAQANLA4u45b7XPpARgDmDzvvStH5f1aq40jeL9TFHID9AJw4xPg8iVg5BSwezz41/UaOQiMnwGGBDy8IBigiShlrOOWawB683G135W8MwVcPQnM233SAN74GHhpV/Tv47Bjh8j9o2vTS13V5+LMYzg6GjIelR+0cgVQeM3jNMSArt97gm2gihEWouO9Gmrg+4+W20/UNiOH4mtbsf+wjyeuZdVtYfKxWE8llMZ1UHOzAHz4gvPXzV8CTvwbOP41sDviY/SLAZqIUs7zkBa3w1mStDQFnD3pcoMKcPkF4PtTwAd+CznBiQjSXQHaLMBFyAOV2c5ixD+9GM+725s2beKcmBCpPdFSe3gKORSM1n/m31XWMTuxjEM7lnBhuo6a09dWVzurbkvbAx3DGZWUKvSdKeDDx5uDWuAADeAzS4AeOQWcMRe3fAfsNev5FeDsifCP0S/2PxNRxniOaUq2dxjA3i8s80Vrzjh+sHOT+ZPADQFtgbIuIixroppHekcL0EAd37a3xJPTysHeaLUICdHx9+T0Yez0EM5da/3XOrXw4u3tKBpA8+jvZRx6v27ztXVc2BOkb1oc8QG63BxcreF5b8ClkXdOADfNr/2iWTVot23sAt76Gthr/vmSmAHRCavPRJRRegXpPwNnvgbeGu1p89sF7D7THaQvfyLmW0roj7ZuQzd5TUBLZ/m/7QPbRLdyeGFvdDKkVaKTuFrKD/fj6LV857CVmWVcKFtv0bCcSpjD+G3/pxkqb+QgcPw74K13g33dP80eaAN42WEJ8ltfdD4WNSD2YoAmoozTJkgP7XJfI7P7bWDE/MO/xS42FMZSNRa0DV3tP7+3P971tLx3uFmNVkfk37J6Vz99GDs/iFutavPsbB1HR5vV5sr7tU4fdGkAO6t1VGxONFy0tET8+E0dladbfxjuD/1Wj7TFhCMHgfG3m4MaAOBugC8ud6rQI/tcBsXRZjX6JtAeEEUuMvRo3yAiygpffdKq9UjHReQiw2oD5vuqBTRQKdu9c23DMQdYduXAAP4YcFs8EdgbHT8pl0qJXyUN92EX0HybZq6BGoA8Glic69xkbmalc5yno2ZbSPvtmck8DJH905EHwlHggwiv1Dv/6Hz8/J/db7vDAFBp/icyRDNAExFt8PDhw5QE6WfFFl1EBenqOsxI4C8PNDnngAZ+bO8QlsNO/48kFO7UoYb4VtSpoGBZhOim0nlxwbJwMexmPco+0Wv/7nyc9/jX5Z9FM0QDqC0AuwVsXcQATUTkSNsgvfR/lnU6f0n0ocTGUtlGoS/WfmhKTqQQrV4rR4vtk7m5GHHMx5d3trzJYfx8mM3WO6QfqiKE4V0pGBrpfHzvLsJfUrQwQBMRedIuSC+VgSlz+7uDzcWHoomoRo9uw/V728Q9puHNOHdvs7j7C4ktHfESXomW28rRQKUMGK6boFtOIQRQLMa3+4Z27vVutB0TBmgiIt+UDdJ3zJX7PwD/nAd+vmTZLrV1SBdJw5aO5GnWztHAt6VlTBgDGH9nC8Z6wnStvIorH620j+1EaXvgM+9F0qMKHcLPPwAQ/4NlgCYisucapBOxAFw9sPFsghEDeP5d4CXJk28MJxkSeQkdohN9MVfWMFVaw5TbbYxBXIxxD2jfdA/QUTlUoRmgiYjcOQbppKrRf7BsDDdf6fx//gBw2QDekBymHYJ01ql1sZVuQveJln/114/9kwPuiwONHIozeVwXsXE62fvDM+G+jgGaiCgSx/Ey9jDZOozrg9Z/5qmFZ75o7RFdAS4fAD4re92RcFlqcWDVPVmatXMA+cPbcO7wNgAN1KoNLJr7PA/3YeewmBWx+cNDuH442n1k6UXsC6sFRERCKFeRthoaBT74DvjwhWarx80DwHO/ALslfT9WoylBwirR8V8N9SE/3A9jtPWfoAAtVdKDW68d5ltxFe8TpZYsjW87ngr2fbiQkIgoHkoEyl3A+KnOH/8ZfzU6S1iNTo60Y7+zTJsqdP7Zzse1BefbAcH2lPaJAZqIKBzlx88hS9vfzz/E/u21mYdJawzRcVGtCg3Y7P3sor0dno89pa3YB01EJIU6/dEJU3F+pUxgiBZMq6vfoT+3FoAAuPkPlxuWgZutD0f2+Q/RDNBERFIpG6SXLNXnsIvRI9JqPiYtMUTHQdmr5F3A82Zf9CXnVdQ3/tb5eGxc+qMiIiJVLQB3PNr/sGA5tRDAczEc2KDsPBsP9kUnQ0iI5i9PYy+92/n45gHghjVILwA3XgUut1o5Rk75X2HNKjQRUSzirUbfBc6+AHx4wj5M35nq7MwBAHu/kLczB1HCtNviTmV6vnU0Cpw5BZxoVb1en6UAACAASURBVA0uHwAu29xs5CDwgc8qNAM0EVGsYt/2bv4ScPaS+21GTgFvJXhsMHiCIcnFdg7ZdHiLaWjcskG+jb1fAB+cifUhERGRikaBNw6632TEAI5/57/wIooO8y2lyqaHPsqDXkdI8iqvybYSrd2LegG409qpY+gpYCjgdnasQhMRJcZxvpYyFy0AS3c75wyEmTNEs5mDspRR3N4R5zwsXuR2jiw9ObNhF7Bb7CDIFy4RUTwc2zqk2NUMzUG2PU0AWzpIFrZzCJKOKnRESW+pRERE9rIyPmdt3qVEMUSTVKxCExHFi+MuUTwYoomIiLIgK9VoopgwRAug59Z2gtkMzqyGEBElg+NvN87TJANDtCzsyyIiIoof51+KSaQQzdWuBIBvERIR6YLjdaoxl8WLlWiSgm8lEhEli+MwkVwM0UREREREATFEExERZQlbOoiEYIimaLgrBxGRsjI7HtssLuQOHSQaQ3REPKmQiIiIKHsYoomIiIiIAmKIJiIiIiIKiCGaiIgoa7i4kCgyhmgKj4sKiYiUx3GZSA6GaCIiIiKigPqifDG3i3HAt8mIiIiIUm3TQx/v82zatCmOx0IpwLcNiYjUw3mcOD+L56udgz94IiIiIqIO9kQTEREREQXEEE1EREREFFCkhYXX7z0h6nFoK9PHfnMBJREREWWU7xD98OHDDQsTXtnxE4M0ERGRjtJe8LEp9GQhs3DntPiwnYOIiIgoBRig48UQHZHtVS3bHIiIiEgR3GVNDoZoCs/mrUDuRUpERInLaCuHHQZoeRiiiYiIUsy2uJH2fmiiGDBEExEREREFxBBNRERERBRQoBBt11fDlaBEREREybLLY+yHlouVaFmyskMHFxcSESkrk+NxVuZfShxDtABZXfFLREQayuCiQs7TJANDNBERERFRQIFDNPuiyY9MvoVIRKQQjsPZwX7oZLASLVNW+rIy+NYgEZGW0j5eZ2XeJSUwRAvCfisiIiL1cH4mWYSFaLZ0ZBx36SAiUgbHXyL5QoVo9tkEwLeWiIhIBWzlSCX2QyeH7RwC8S2jjVgNISKKF8fdDs7LJJPQEM2WjoxLe5WDiEhXHJ9TibkrWaFDNN8qCCCjbzGZWBUhIopHZsfbjM+zVsxn8WE7h2CZf+vIodqR2YGdiCgmjuNsRqvQmZ+PSTrhIZpvLThQ4Sp5aaHzHxERUSjl5pz25uPAm68CSwk/HBXm1wQwbyWvL8oXP3z4kBVGG9fvPaHOk3upDEz9DZivbPzc3i+At0bFf8/Pf7Ed1DZt2sS3mYiIJIi1Cn3jb+Lvk4TgHBsvtnOk2Z0TwIkD9gEaAG4eAN48Ied7s62DiCgW8bZxlIHLDnOKQtjKQXGQEqKVqcKqJs63nJamgLOXWn8wgOPfNQfUz38BznwB7DVan7sEfDgV3+MiIiJ9fXYg6UfQja0clKDIIVqFtw5q1Yblv+TuwyrZq+AFYOpk54/HvwZ27+r8eWgUeOtrYG/rz/MngTsSHgar0UREUsVahV6aAm62Ph4xXG+aJO/5t9E154cl4j5EUiGPZU2knmg3r+z4SWqQrJVXceWjFczavquUQ3HyMRw97P7PE3Efgb35uPyV0kv/B8y3Pt77BbDb4XZvfdFs6QCAq1PA7nHxj4X90UREUsTbxmEpzuz9Atjxt848k5RAVegGauUHOFtaw5zNZwulQbx+ZDOMYe/7ufr+r5iaWY9wH9GwCq0OIe0csYeh6irOlpzCLwCsY3aihlf2raIm8z48OF5EyH776V/XOh8/57ZwcNRSjY5/NGRFmogonNjHzxt/bYXmg3IWpAtiP+82cHVfDYccAjQAzM2sYGLPEq66vRNdXcV7O2q2Adr3fUjColQypC4slHu1lEOhtB0Xbz+B6/fM//K4ODOAgnmTygrOTru9zSLiPlRmAEMeN9lhviX3b3nbFGV0j1IiotjJauMwFxO+8bb4+w8jQDGqNv0rpiqA7Zx/ezvGS7nWLdcxtec+7GtrDVw9ttIO4YXSdly05IbJSct9HAtffPPCKrRahIXoeK+C+nH89hDOne5Hvuttkz7kR7fh3MxA+2/mJh44vCBE3Ie3xKrRAIBKgGAc5LYhsD+aiEiIxNo4Rk4BL+1yv3kcHOZP1xZSYxCTdnP+cD/GTg9hsmT+xRq+tCuclR+0gjhQmMw376f9yT4Yh4dw0QzSlRVcKfv+10TGKnRypG9xJ+WqabivJ/j2GN2C8faah9+xaPfWioj78CnRRYa1AAerBLltGAzSRESRxH4q4WcvtNo4DGBcwrqZODy9FRevufcqG0cG2+9Az81vDNGV2bXWRwN43WGtVP7wVhRbH8/O1kM/XCesQqtHaIjm1VBAsqrR/7uv8/H3/+dyQ3X2+2SQJiJyF/s4eedEZzeONz72bg+MQ4gqdH7UWjV2MNyHdo19ruHcjmHksNPxTvrwZMybljB3JSuWw1aSvXp6BDsjr5SNfh+xtnUM/RkYaX08fxL4zO59pQXgwwT2+3SpljBIExHZcx0fZfVBm2cN7P1CjTYOB3G827tzxGzVWMei460a+NFs+RgRu7MXq9BqEh6ilbgqqtZxyyywlh5FqAtDEfeRmF3A+KnOH28eAN58FfhsCrgzBXz2KvBm6y26JPb6ZJAmIvIt9gCNMnDCPGtAod04ZK4lqjbQbmgs9G2oXOdfNDcccOiZBlCb/g2zAIAc/vSitB2E25TIWxkX27HfsV1FVeu40F5BO4DJ0/3J3IeNeKvR48AZS5BGBbh5Ejh7ErjZujrY+wUw9mznJvkYKw0M0kREnuIP0AuWUwkN4MwZCd8jhDCLCQOofNrZeaNYtJnzhzfjeGvh4NxEDe9N1y0tHw1UppdwaKK59V1h8jGMCdwrmlVodW16KOlSxumFL/Jtl1q53npbpYHF2XXcmlvDnFk9NgYweX6b56bnIu4jKMcXhKwB8cYnwPf/BuYrrcrzs8DY281TDG+82uqLNoAzX8ff8+ZyAcGrbCLKsvgDNIDPHu/0Qe89BTz3jP3t/vm3VkHGAN54F+3S7dCo+HnEZZ4QkinK9/FKqbVw0BjExWubHXuoa9P3cXbCeb/pwmQe5wQf0maXGTg/qkH++w3SNPD9R8vtLWfajByKr23F/sM+FhIIuQ/V7QJeOgO85PDpe+Y//tlkFo04nGgI8FRDIsquRAI0APxs+fjmyU6gdlQBLlvW17zxXWz90yICdK18H2fNAI0cxs87B2gAwNNun8xB9L+cVWi1SatEA7Kr0c2jN2+Zl4OV9Z4rwxyKk15BWMR9hBNvNdrJAvCh2Rt9Cvggwe2LPFpaGKaJKCsSC9BAc83Mz943w7yl+mRdW/P8x2JDtMQ2jpqlBQPIoTgzhKOO7d8NVN6vYWIGnduXBvDHYh8WZ/+LWzOW6rRHNdsvp5zA+VAdGodoe7VqHVeOLXeO8y5tx/WAPc0i7sOPxIP00lRn8UiM1QNHDNJElGGe60FUOv01jlZAWW0c1TouWOd45DB+e8i1j7nW1fO8Hcdtimvdt4ne1sEQrT6pCwudftEy357ID/fj6LV856CUmWVcCHhykIj7iCSW0wwB/N2y+jrpAA14ThBccEhEaaVVgI6DpABdK9/He3s6AbpQGsTFe+4BGtVVnDUr1qXtOOfw7nT+cOfkw7mJX3E1wiFtDNB6kL47RxJBGujD2PnO6UPhTg4ScR/uEj3J8Marlk30307ucfRikCaijOG45l+kAD29hEMls+0ih+JMHudOe7dd1L5Zc9+5w6Jz8uE6bn1jvxWeFwZofcS2xV3s/J4+JPs+PEjb9u7OFHCjDCz1/P1SudnzZp5UOHJKjSq01ee/eG6Bx0mHiHQXaCx78/H43qVMmoQ+6K7+Z2MAk7eHcHTUX7vF4nynb/pJr926LLnB7vhwSpdYdud4+PCh7UDxyo6fkq3GKuL6vSfsrzzffDzCW3jzwOWTwGWXmyS9mNCLy84dAHfvICJ9hS4ERJoXNCBjIaG1HSPEor/maYXrnrdrfi/LoS0hsAqtl9i2uIs9SHucPhTbfUQVesAccfmcARz/uLlPtIoCVFsYpIlIN776n93GQfNzSYbpl7523jo1LEmV9s5BKgOYjLRrxjp+rAJw7Z/u7PIV9OhvBmj9aLhPdAOVMmC4vg3TwNVjbqcPibgPsRyr0UC4IL17HPh8HFhaAJbutv7yKWBoVzL7QXuJMHiaExIHGiJSma/qsznWewVpIF1VaWkHqtTxrbktXelRGK63tZc/vBXFiWXMApgt3ccf721zuJ86Llj2nI7j6G9KltQt7my/YeRt7+q4sGMZs8YAxt/ZgrGeIFwrr+LKRyse29OJuA85XBdcpmWwNEmoOjBIE5GKIu2+4TVW6j43yDyRsLqK9/Y0C2KF0iBeL/oMtsP9XacV9/ZU92aH3twQdIs7VqH1FHuIBqIG6VYA9vONHHufRNyHPKkP0lHCs5/qDDjwEJEaAlWf3fgZN3WdHyQeqNJ1pHcAdiG48v4SJma8e6MLpe04ftr/IW0M0PpSancOf9ve9WP/5EB76zlbRnPrmuuO4VfEfciTysWW5sryMAHa3K3D+janB+7gQURJ8j0G+Q2+HrsWAdBz9w6ZAVow4/QQLs4MoujUE2KY2+ZFD9Ckh0Qq0YD71bn/F08DtWoDi+aG5sN92DkcdAGgiPuQI/ETDaOKWnEW9D14NU9EcRIanu2kpSqtUYDeqIFauYFFAEAfdo4Gzw1uAZrzlh4SC9FAMseC60a71o44gnPI78lBiYhk8v3ul4ixW/cgrXWAFoNtHPpLNEQDDNJePN/qUWGQTCI4h3wcHJyISAbp1WcnOi46lLmQUBMM0OmQeIgGGKS9KBmkVQnOdhimiSgmiYVnK52q0gzQDNAponSIBrLzovKiTJBWOTxbscWDiCSKtXXDL9Wr0gzQ7INOGSVCNMAg7UdiQVqX4GyHYZqIBFIyPFupGKQ9HlNW5ngG6PRRJkQDDNJ+xbLYUOfg3CvAv0WhlwMRKSTQlplJj4EqtXcwQANggE4rpUI0wCDtl5QgnabgbIdhmogC0io890q6Ks0ADYABOs2UC9EAg7RfQoJ02oOzHYZpIvKgdXi2Sqoqzf7nNi4kTC8lQzTAHTv8ChWksxic7TBME1GP1IRnq7iDNAN0GwN0uikbogEGab98LzhkeLYX8Oei8EuGiEIIFJwBfcfDONo7GKDbGKDTT+kQDTBI++UZpMPQdaIIi2GaKFMyE56tZFWl2f/chX3Q2aBtiAay96L0IiRIp2GSiCpExV7xlxERWWQyPPcSWZVmgO7CAJ0dyodowHvAy9oL1E6kAJ3GCUIEhmmi1AgcnIH0j40iqtIM0F0YoLNFixANMEjbYXCOEQM1kZYYnj2EDdI+vi5r8zIDdPZoE6IBBmlAcO9zliYKURimiZTH4BxCkPYOVp83YIDOJq1CNJDdIC1l4aAp65NHGCF3OtHs5UakjVDBGeD4ZxVlB6eWtM7Bbhigs0u7EA1kJ0hHCc7Wn4Gv++FEEh4DNVEiQgdngGOem5BjWlrmXr+85laO8emnZYgG0hukRQXnUPfNSSWaCFUcTV+GRLFTIjjfeBW4XPG+3cgp4INxMd8zbgHGM13n2ygYoAkA+pJ+AGE9fPjQdTB9ZcdP2rywZQbn3tu6fi9z0MxqmF5a6Hw8tCv41wfoGezV+1zmAEzUoURwzprPf+HiQQcM0GTSthJtpeNe0nEF59DfPzMTzwLw2V+BmzZVpb2ngJfHgaGI3yJin2EKXqJEgUQKzYD88euzx4GbAGAAe591vt2OvwAvjcp9LLKwEm2L/c9klYoQDegRpJMOzr0y3yu9NAWcOOlxIwM483X0IG0SsHAnJS9ZorbIodkU13hlhmid2zWcRBijVJlrZWGApl6pCdGAukE6bHiO4zFnN0gvAB++AMy3/rj3C+Ct0c7nbvy10/MoY6IUEKYBDtykL+2Cs1VaQzR353DEAE12UhWiAXUWHKpWdfaSuTB95wRw9lLz4ze+A16y6YG2Lh46/guwW9JjERSoAQ7mpC5hoRlIeCyyXIB3XXxrLGDvs5/5Ii1hmv3P5CZ1IRpILkjrFpx7+X78aQjT7Z7Gg8DnZxxuVAbePND8MM7JUmCoBjjIU/yEBmZAsTEnRSHa51hjNz9lIUgzQJMXbXfncBPnzh26B2cr8/F4/pvefFyxSS2CkRGXTz4FjKDT8hGXCLt82OHOHySb8NAMKDzG3O2MCTueSvSRRBJx5w0/84VOu2T1YoAmP1IZogG5QTpNwdmO51Z4gP7b4e0wAFSAebeErMBk2fvzlRCqAU4I5J+UwAzoOZbcuwvcudv6w1PNrTFFLUKWJUL12el2XkE6yP2pgAGa/EplO0cvEe0daQ/OTlLb4mHdmcOzJ1rwDh2iCG77sJOB4YEcSAvLdnQaPzx39TGAve+q1+YhODzb8ZovVJ8LGZ4pqEyEaCBckM5qcLaTyjBtXTj4xheW/Vx7dudwCtkqYrCmEGIJzObYYPcc1Wnc8LU1JqDMxXcM4dlK115pBmgKIzMhGvAfpBme7QX6uegyKd44AVy+5Px5nQK0nRhCtVWGhhPtxFpZBpzHAKfnpC5jBgAsYWM4XloA/vVJz3jitnA5BjEHaJNuQZoBmsLKVIgG5EwkKg0GcUhVmLZudbeBAbzxsd4h2k7MwdoqY8NNrGIPyVZBX+e6V6PdLJWBEwc6f07iQjyh8NxL9fYOP3MZxyxyk7kQbYo64ST94leB3i0eC8BnL7S2uQOafYz7gOeeAf75D+CmJVin7UCFXgmGaicZHZZsJRqOnUR9TaehGu3GenGu4PaYcc5fqlalWX0mETIbooHgkxODsz0tw7RjP7TTbTRv6whKwWDth+rDmZKB2I3M12yaq9HWPebjuAhXMDxbqRSkWX0mkTIdogF/kxrDszetWjysC4O8qkTtQ1kUWSQUB68qoaYBm1wk8ZpMdTXaciCLzL7oAK9FFeaxpNs7GKBJtNTuE+2X+YKJ63CWtAq0KDPpPab/da3z8XMeb7O+fAq4eRJABfjXQraq0U7cfm8M2OpSLZx+/kuKny+WPeZdD3QKSbPwbEpyT2m2b5AMmQ/RJj+HswBqDUgqChWmgXgn+HutFg0Y3pXloWcsX3cXQMpDdNTqoNftUhuaFKBaSA4rDSei3vlH5+M/PON8uyACvnZUnaviPumQ1WeSiSHaglVpcQJvFxhnddo8rdCPpR+kPhQtiPyd+L0vhu0OET//pQXLHxQ6VS+V1eiyZccfA3g54qLClITnXnFUpVl9JtkYom2wKi2O0mEaFfv9Xq2WLMeCJ3X0d1xUCjNhf/8q/Rt6xV1dXSoDf/8bcNPhgvH4d8BuRd9ZUbkafeNV4PtngbG3N/78erfM3Ptu+AuWlIZnK68gDYQrXLH6THHJ/MJCN35X0us4eCUl8EE2UiZSy8p510U/1tulfGFhqhd5SaD6zhKu+5+3qLTjjOo/Tyvrrj1uwm5tl4HwbEfEokO/8wtjD4nCSrQLP+0dAFs8glCjMj0KvGG0JsJLwIfYWFW6MwVctRzt+8bH6Q3QSfAbRHqpFPxU1RWgDeCNd7u3cDRP1lOdqtXo/LNwbQcbOWhfpfaS0fBsitreweozJYGV6AC4HZ54oY5YFzWxfvaq81vdVnEelpCEJKrQuodoVSun1u0bdXv3RNWfqZOlBQB3my1hADD0FDAkNzgD2ZhjglSlWX2mJDFEB8QgLU8igdqsOM/bfG7EAMY+VrdvVJQkQvSdKeCfdj90Gz9fav1+FAqFqga+9r7mAI7/AuxO9NEEk6WWIoZnT6HmAxuMOCQTQ3RIDNPyJFOdXgDu3G19/FT6g7NJ9eBirayqUoUG1AzRQQ4RUpWKP1dRGJwDixKkGW0oDgzREXDhoVyhB9C0TLqyqR6gAUtlVeKpb2GoGPbaLTIKVeyD0uE5GUTI3WI4Z3QLOhcw1lBcuLAwgiALDwEOjEEFXoRoSuoQFxJraarTmvDG24k+FPUtAN+bPebP6hmggfTsG83wnAiGZ4obQ7QAXvtKm7iLRzhhFpG0JX3EuKp0qPj93Vwgd1CdNg5lWY6Z3vuX1gcLwJ3/A/55DfgZAJ4Fnv8L8L+j+oVsVXfqsGJwloILB0llDNGCsCodj9CBmtVpvbAKHUzvyZpLU8BU74LZCjB/CbhsNLdsVPXCRKdqtNDg3ECt2vlTfjjc9FyrNiLfhwoYnkkH+r7CFMUw7c46wAN9yA+HuZfmZHPxdh4AcGhPLdiXZz1QswqdPl0na/7QWWA4chD4Q+vv27ucVIDLLwBQaKGmH6pUoyME/I3jfQO18gOcLa1hzub2hdIgXj+yGYbXOFmt48Kx3zBbWbe5j+04frof+bAPOmYMz6QTLiyUjIsPgVp5FVc+WsGs7bbAORQnH8PRw17Xc/4mm4k9EbZFUmGClk2HAK3qjhxWqi0s3HBCocPiwq7bKbZYs5dKP2OhwdnUwNV9NUx5bpeew/jtIYw5BenyfbznMC52DGDy3jYYXt8qQQzPpCOG6Bj4DdJACsN0dRXv7VnxGOABGIO4eG2zQ7Uk3GQTaZ9RlUKlSDqEaFV35LBSKeABG0O02x7R1r2kVb1IAZJ/rkoJzh216SUcmlgHkEOhtBXHj/R33pmr1nH1098wNWNWlh1CcNf4mkNx5jHsH+1rjqO99+E6xiYnyDjNuEKqYTtHDPy2eABpbfOwmSR6K8uVFZyd7sc5m4p0bfrXVoD2mmzWMbXnPna2JpvQu3sAGydQlUJmWEmHEj+svdDtBXIUyMgp90NWXj4F3GxV+u/dBaBoiI67N1rA9wo8bhuDmDxv064x3I+x0/3YiZ8wMQMAa/hyeguMrvGxgavHOgWK4swQjo663EdlBVfKm7tvkyCGZ0oDhugYZTNM9+P47c02vc99yI9uw7kZ4JXSGgBgbuIBKocd3nKMMNlE2t3DlPU+6rj861rrAwN4WZHZXgdDI52P//CMx20tn//5BwCa/ZxF9kYnEZxNT2/FxWvuvcrGkUEUZppBeW6+ga4pu1rHLfPdudJ2x3BsnN6O4swyZgHMfrSK/aPJVqMZnilNGKITkKkwPdznPmCPbsG4sdaqNP+OxSo2BuWok41FZgO1DlVo617HI/v024YtSUMewVlXMqrRSQZni/xov/eNhvuwC2hWm+caqAHtcbD2TacPulh0u69+/LEEzM4AqKxj0XIfcWJ4pjRiiE5QpsJ0BFEnGyeZCdRaBGgAdz7pbMn2/J8TfSj6eQoYQfPn51Vdtm6H51W1VlWQarSgEK7u2JvDkx67d+wcyQFYh2OhQiKGZ0ozhmgFMEybHsHOGAd3q96fp5A+akC9oKqyf5oL4wzgfxXt01XWLuB5A5ivAPPXgKVx50p+u2UGwI6nYnl0kQStRqcpNFcbWDA/Lji9q7eOH6sAfI2dQW4bDcMzZQFDtEL8nnwIpChMd/X1PRp+CyZfk41/QqrUQPILFHWpQqPcWVDIVo5w/ncfcLkCoAJMTQEfjNvcqNy6DaD9HtxmNVpgu4dq42nl0xVfLRsL/2kAo/6m8yC3DSPoeMkATTpjiFZMkKo0oHmYrtZxob26fACTp320bTjwO9mEISxQA8mHalXd+UfnY7ZyhDM0Duw92bwYmT8JfAhg3FKRXioDUwc6t9fpJEinsKxIf7MU5futxdIAjEHs7+nQyb84gMLEenMdyFd11A47LRis48rExkNYRGN4pixiiFaUdYBJQ5tHrVzHIgCggcXZddyaW8OcWRAzBjB5PsJBAB6TjUhCAzUgN1RrU4UGUPt35+O8xtXRpL31HfDzC83e6PmTnUNreu39Qp8qtIRt7lQdJ0218n2cbe1aBOQwft4mIA/3408GmuNoZQVn3++zOZmwgav7mjtzyMLwTFnGEK2BMD3TgEoTRQPff7S88bAUI4fia1ux/3D4I2l9TTaSCOmj7iW7Uq1igLbuyoGD7nsck4ddwAffATc+AS5fsvm8ARz/GNitcIDOYGi26hzCAjQPUHE6rbAPY+cHcat12MrczDIOzeRQLA3gySLw4+waFmaaleqCkcOczZHgYTE4EzXxxEINBTkBEVBhAmng6vu/4pbZb1FZ7znBMIfiZPAwbTfZqHKQACAoVDvxCsM6VaFRBt5stRmMnHLo5VWMLotIl8rAUuvjoVG1es0lHqSS/JgXQrWOC8eWMdsuNngc993+OvdTYQul7ThX/G97P/7izBOhx0mGZ6JurERrSL++6T6MnR7CWM/f1qp1XDm2jNnKOmYnljE7vx3X/fRFh51sYialUm1yC3FaBWikY8s1VakSnCWfPKhlaLYw31Ezg3ChNIjjp32+qza8Gefu9aMy/QBffvU7UFkHjByAR/Cnd7ZgbLQPtenfWjf23g7PDsMzkT1WolMgaGUaUGnSaeDqvlq71cOrShJpslGM1Eq1HVVDtI50qUTHLc5junuoM6YFs/EdtcdwVPDuGZX3zRNdBzB5z//6E4ZnInesRKdA0Mo0oEJ12tTd1zc7W8dRh8NV4phs4iS1Um1Hh4NhSB8xBWa7MSr2C1BJusY0c4G18HfUGlg0qw5GDjs9bh3mZ8vwTFmlbwKhDYLu6AEoshDRx2mD8Uw2yYo1LHgFIIZsSqiqHHYcemXHTwoUBQKoruJse0wbxMVrkt5Rs+zFX3jNed0JwzNRcAzRKaV3dbpHXJONghKrwrkFKAbs9Eiw/QIIP9Zcv/eE9tXozt72A5iUOKZZv8/rh7unfAZnomgYolMuSpgGYgrUHqcNxjXZ6CLxt7dZxdZHwiHZFNeFuT7V6Dq+Nfe2j3JSq4fa9FJ7D/3C5BYYCD9WMDwTbcQQnRFhwjQQtTrdQKUMGK59yw1cPeZ22mA8kw0JFCa4MXh7UyQQe4krxGpdjbYUDgpooFKuNqDhYgAACNhJREFU+/u64f7uNrbyKi78pw/7X+xH3vr31TqufvobpmY67+DNTdTwykTwh8rwTOSMu3NkWJhdPYAgk2QdF3YsY9YYwHhrqyWrWnkVVz5a6WxVV7LZ4s6yB2qhNIjXiz6v+3onmxRzChJuvydtw4ebOIN42N05NAnCfiVd9Q3z3FdC+X573+YgCpN5nLO2ZIS8Hy+MBUT+sBKdYWEWIgIh2j0qa5gqrWHK7TbGIC7a7RFd7RzMMjez0jne20NhMg/jcHaf3l6/l1QG7KQDatLfXwLVw6jW1WghcihgzfGglSAYnImCy27KoC5R2z0Auwm3H/snB7Aw4TLIGzkU39F7q7okyQgQXsEp26ElXVQPyWEp3xs9ug3X720TcD+bce7e5kivSYZnovDYzkGOxLZ7NFCrNrBYbf1xuA87hzcuIiT/VH0rmyFbHUk/F+Ji95zLwr+diwSJksUQTZ7ChmlTFiazJKgaok21asPyp77uhU89GLy9qfJ7VZHqrwWRWHUmUgdDNAXCQK0GVUPDhsWiXXIoTj6Go4F71RuoTD/AlxNrmHPZJ1z1IC77dxPkosVVtXngEQBAo3eL0lqNjvq85hRPJA9DNIXGQJ0cJQODZScVVwEOzNkQyhU6bEeF34G4ixbLhUrvpzQ5IVTVC8swGJyJ9MDVXBRa2N09TEocOa4htSuuORRKW3H8iHXf2gZq5Qc4W2oFtMoKzk73d2/V1cM9HBKA5kmeJbeLlnXMTtQw+5XXhUcDV/fVMOX0s66sYWLP7yjODOHoaMTHLJHuO3UwOBPph5VoEipqdRpgoHajdLWt2kDNrY2ga0/bAUze22ZzeE5rb3HL3xRKOWCmtdUhK9Ed1VW8t2cN8Lpogc3+whaV93/qbB1pDGLy/OZW1bmByvu/YsI8sMPxd6YOpV8fNhicifT2P0k/AEqXhw8fdv0Xxis7fur6jzQx7NGHO7oF4+0E9ntnpxYnxgDGZ/I4d3ordol5hCnTj+O3h3DudM9pdehDfnQbzs0MtP9mbuIBbAvN5fudAF3ajuvXNlvaNvpgnB7CZMn88xq+nG5suAuVqBqWTSLGtqjjKxGJwxBNUokY8Bmom3SrsoX1pDGAydt5XL+2bcMpl2Qh4KKlMmu+M5DD+BGbw44AGKe3o9j62DGMKy7JsUPE+MXgTKQmzlAUm6g91MDGyTBtATIoff/9j2CnbQDsx9g1+zBHotXxbbuNYwDPOwbyfvyxBMzOAGYYV3mRYdK90aK+NwMzkfoYoikRIgI1kJ1QnYoqfLWOW2YZs/So0r216WNz0VL+b7v3vPBav2uf+c6RHIB1AOv4sQpA4RDtRNYphiJfmwzORHphiKbE9U4cDNXdUtHGUa3jwjFzJ4kBTJ5mtVk6j4uW2n9+b3+862n3qSD/9CNohmhg4T8NQPE2G9nVaAZnIgIYoklBoqrUQDpDtepq5ToWAQANLM6u49bcGuba+zy39hxO7uFlQ6CLlhye9KosD+dQQHO3j7n5BnSdOsJWoxmaiciOniMhZYbIKjWgX6jWrwrdwPcfLW/cc9jIofjaVuw/7N42QMGFvWhZnF+3+dv0CFuNllHBZnAmSieGaNKKyCo1oF+oBjR4jIUcCubHldb+zpV1zFaWMTuRQ3GSYVqcBC5a5prHguv6++utRjM0E1FYDNGkLdFVakCBAzQs9FxM2Iex00MY6/nbWrWOK8eWMVtZx+zEMmbnt+M6+6LF4EWLI6dqtOjXFkMzUTYxRFNqyAjVQDLBWr82Dnf54X4cvZbHk+bx0jPLuFB8QuljpPWQwEVLoU+LQC7zIpShmYgAhmhKMVmhGlCrYq2PPoydH8StPc0Fb7OzdRwdZTVahqxdtMh+14ahmYjsMERTZsgM1YC4YJ22KnSX4T7sApotB5r31qrP/aIl0N7P1VabCIDCSHLTRlwtTgzNROQHQzRllt1EGUewBoIH4lQEaIqfy0VLkL2fg+wpLQoDMxGpjiGayEJ2tdrkVLXWczFhANUGFsyPNemtTa0Aez93tsPzsad0CHE+7xmaiUgUhmgiF3FUq016B+gGKmXAcD3JroGr7QNAgGKR/dDSuV20DPfjTwaae0rP/BeV0/0Oh+DU8e1M60NjAM+HDNFJPL8ZmIlIJoZoooCcJmZZ4RpwDyBqtHo08G1pGRPGAMbf2YKxnjBdK6/iykcrmG0fQ709tYvc4iHioqUPz7+Ww1RlHcAaJt5/1HYHj9r0b5g17+Odza7vHiR1IciwTERJ2PSQow+RNDKDtV/xhOw6LuxYboctV8YgLl5zD2OO9x34a+VJdoeW1s8kwEWL/RZ33b+3wuR2HG/vKd1AZfpXTEy0WjmMQaCyIuVfEwSnLCJSBUM0UcxUCNZWooJfbfo+zk6stSufGxg5FN95DEddq6d2GKI3EnjRUl3Fe3tWnH9vCeL0REQqY4gmUoBqwdqO/4DYQK3awGK19cfhPuwcTt8iwqT3Cg9y0aJ6vz2nISLSEUM0kSKsQdr6stQhYNtRo1dbniRDtOqh2AmnGyJKEy4sJFKEU8DwCh6qhmyRQS8tgVzX8OsXQzIRZQkr0UQpp2rIJv1wuiAi6mAlmijldK1kU/wYkomI/GOIJso4v8GJYVtfDMdEROIxRBORL2GCGIO3eAzERERqYIgmImlEBj6dAzmDLxFR+jBEE5EWGESJiEgl/5P0AyAiIiIi0g1DNBERERFRQAzRREREREQBMUQTEREREQXEEE1EREREFBBDNBERERFRQAzRREREREQBMUQTEREREQXEEE1EREREFBBDNBERERFRQAzRREREREQBMUQTEREREQXEEE1EREREFBBDNBERERFRQAzRREREREQBMUQTEREREQXEEE1EREREFBBDNBERERFRQAzRREREREQBMUQTEREREQXEEE1EREREFBBDNBERERFRQAzRREREREQBMUQTEREREQXEEE1EREREFBBDNBERERFRQAzRREREREQBMUQTEREREQXEEE1EREREFND/A8LzNhMq/ErmAAAAAElFTkSuQmCC;" parent="1" vertex="1">
          <mxGeometry x="-931" y="1040" width="721" height="778" as="geometry" />
        </mxCell>
        <mxCell id="TeDU6AR1G7iNaBMB_BBf-1" value="" style="endArrow=classic;html=1;rounded=0;entryX=0.903;entryY=0.257;entryDx=0;entryDy=0;entryPerimeter=0;strokeWidth=2;" edge="1" parent="1" target="CdIVfQIHoynyApezfRmy-1">
          <mxGeometry width="50" height="50" relative="1" as="geometry">
            <mxPoint x="-40" y="1240" as="sourcePoint" />
            <mxPoint x="-20" y="1280" as="targetPoint" />
          </mxGeometry>
        </mxCell>
        <mxCell id="TeDU6AR1G7iNaBMB_BBf-2" value="" style="endArrow=classic;html=1;rounded=0;entryX=0.903;entryY=0.257;entryDx=0;entryDy=0;entryPerimeter=0;strokeWidth=2;" edge="1" parent="1">
          <mxGeometry width="50" height="50" relative="1" as="geometry">
            <mxPoint x="-50" y="1640" as="sourcePoint" />
            <mxPoint x="-290" y="1640" as="targetPoint" />
          </mxGeometry>
        </mxCell>
        <mxCell id="TeDU6AR1G7iNaBMB_BBf-3" value="&lt;font style=&quot;font-size: 36px;&quot;&gt;磁头1&lt;/font&gt;" style="text;strokeColor=none;align=center;fillColor=none;html=1;verticalAlign=middle;whiteSpace=wrap;rounded=0;" vertex="1" parent="1">
          <mxGeometry x="-20" y="1220" width="130" height="30" as="geometry" />
        </mxCell>
        <mxCell id="TeDU6AR1G7iNaBMB_BBf-4" value="&lt;font style=&quot;font-size: 36px;&quot;&gt;磁头0&lt;/font&gt;" style="text;strokeColor=none;align=center;fillColor=none;html=1;verticalAlign=middle;whiteSpace=wrap;rounded=0;" vertex="1" parent="1">
          <mxGeometry x="-20" y="1630" width="130" height="30" as="geometry" />
        </mxCell>
      </root>
    </mxGraphModel>
  </diagram>
</mxfile>
